<?xml version="1.0" encoding="UTF-8" standalone="no"?>
<!-- Created with Inkscape (http://www.inkscape.org/) -->

<svg
   xmlns:svg="http://www.w3.org/2000/svg"
   xmlns="http://www.w3.org/2000/svg"
   xmlns:xlink="http://www.w3.org/1999/xlink"
   version="1.1"
   width="14173.228"
   height="17716.535"
   id="svg2">
  <defs
     id="defs4">
    <marker
       refX="0"
       refY="0"
       orient="auto"
       id="Arrow1Lend"
       style="overflow:visible">
      <path
         d="M 0,0 5,-5 -12.5,0 5,5 0,0 z"
         transform="matrix(-0.8,0,0,-0.8,-10,0)"
         id="path10779"
         style="fill-rule:evenodd;stroke:#000000;stroke-width:1pt;marker-start:none" />
    </marker>
  </defs>
  <g
     transform="translate(0,16664.536)"
     id="layer3">
    <g
       id="Vision Cone">
      <path
         d="M 15225.634,11520.418 A 8126.5654,8126.5654 0 0 1 -537.4052,14299.867 l 7636.4736,-2779.449 z"
         transform="matrix(0.9855342,0.16947667,-0.16947667,0.9855342,2036.7059,-17596.875)"
         id="path10683"
         style="fill:#afe9dd;stroke:#000000;stroke-width:70.86614227;stroke-miterlimit:4;stroke-dasharray:none;stroke-dashoffset:0" />
      <text
         x="14873.611"
         y="-1598.0737"
         id="text10670-9"
         xml:space="preserve"
         style="font-size:857.95251465px;font-style:normal;font-variant:normal;font-weight:normal;font-stretch:normal;text-align:start;text-anchor:start;fill:#000000;fill-opacity:1;stroke:none;font-family:Arab;-inkscape-font-specification:Arab"><tspan
           x="14873.611"
           y="-1598.0737"
           id="tspan10672-3">Sensor:</tspan><tspan
           x="14873.611"
           y="-525.63306"
           id="tspan10712">Aperture=160 deg</tspan><tspan
           x="14873.611"
           y="546.80756"
           id="tspan10710">Range=1 km</tspan></text>
    </g>
    <g
       id="Collision Shapes">
      <path
         d="m 13014.959,8951.6768 a 6087.1401,8142.1333 0 1 1 -12174.2798,0 6087.1401,8142.1333 0 1 1 12174.2798,0 z"
         transform="matrix(0.58143084,0,0,0.43468351,3047.8243,-11191.605)"
         id="path10650"
         style="fill:none;stroke:#000000;stroke-width:140.96235657;stroke-miterlimit:4;stroke-dasharray:281.92472771, 281.92472771;stroke-dashoffset:0" />
      <path
         d="m 13014.959,8951.6768 a 6087.1401,8142.1333 0 1 1 -12174.2798,0 6087.1401,8142.1333 0 1 1 12174.2798,0 z"
         transform="matrix(0.48292604,0,0,0.36104034,3714.6796,-16059.062)"
         id="path10652"
         style="fill:none;stroke:#000000;stroke-width:169.71514893;stroke-miterlimit:4;stroke-dasharray:339.43029964, 339.43029964;stroke-dashoffset:0" />
      <path
         d="m 13014.959,8951.6768 a 6087.1401,8142.1333 0 1 1 -12174.2798,0 6087.1401,8142.1333 0 1 1 12174.2798,0 z"
         transform="matrix(0.27581342,0,0,0.20620087,759.30499,-11497.09)"
         id="path10654"
         style="fill:none;stroke:#000000;stroke-width:297.15692139;stroke-miterlimit:4;stroke-dasharray:594.31383564, 594.31383564;stroke-dashoffset:0" />
      <path
         d="m 13014.959,8951.6768 a 6087.1401,8142.1333 0 1 1 -12174.2798,0 6087.1401,8142.1333 0 1 1 12174.2798,0 z"
         transform="matrix(0.27581342,0,0,0.20620087,9539.7319,-11559.363)"
         id="path10656"
         style="fill:none;stroke:#000000;stroke-width:297.15692139;stroke-miterlimit:4;stroke-dasharray:594.31383564, 594.31383564;stroke-dashoffset:0" />
      <path
         d="m 13014.959,8951.6768 a 6087.1401,8142.1333 0 1 1 -12174.2798,0 6087.1401,8142.1333 0 1 1 12174.2798,0 z"
         transform="matrix(0.27581342,0,0,0.20620087,5211.791,-4273.4768)"
         id="path10138"
         style="fill:none;stroke:#000000;stroke-width:297.15692139;stroke-miterlimit:4;stroke-dasharray:594.31383564, 594.31383564;stroke-dashoffset:0" />
      <text
         x="9939.4014"
         y="-14960.316"
         id="text10670"
         xml:space="preserve"
         style="font-size:1198.29614258px;font-style:normal;font-variant:normal;font-weight:normal;font-stretch:normal;fill:#000000;fill-opacity:1;stroke:none;font-family:Arab;-inkscape-font-specification:Arab"><tspan
           x="9939.4014"
           y="-14960.316"
           id="tspan10672">Shape</tspan></text>
    </g>
    <g
       id="Physics">
      <path
         d="m 8050,7616.5352 a 1000,1000 0 1 1 -2000,0 1000,1000 0 1 1 2000,0 z"
         transform="translate(36.61377,-16464.536)"
         id="path10721"
         style="fill:#ffcc00;fill-opacity:1;stroke:#000000;stroke-width:70.86614227;stroke-miterlimit:4;stroke-dasharray:none;stroke-dashoffset:0" />
      <text
         x="8294.8721"
         y="-8827.2764"
         id="text10670-9-9"
         xml:space="preserve"
         style="font-size:686.21307373px;font-style:normal;font-variant:normal;font-weight:normal;font-stretch:normal;text-align:start;text-anchor:start;fill:#1a1a1a;fill-opacity:1;stroke:none;font-family:Arab;-inkscape-font-specification:Arab"><tspan
           x="8294.8721"
           y="-8827.2764"
           id="tspan10672-3-8">Body:</tspan><tspan
           x="8294.8721"
           y="-7969.5103"
           id="tspan10712-0">Mass = 2000 kg</tspan><tspan
           x="8294.8721"
           y="-7111.7437"
           id="tspan10754">Max Force = 120 kN</tspan><tspan
           x="8294.8721"
           y="-6253.9775"
           id="tspan10758">Drag Coeffiecient = 1</tspan><tspan
           x="8294.8721"
           y="-5396.2109"
           id="tspan10760">Effective Radius = 2 m</tspan></text>
    </g>
    <g
       id="Forward Vector">
      <path
         d="m 7086.6138,-8848.0008 0,7099.9998"
         id="path10771"
         style="fill:none;stroke:#000000;stroke-width:70.86614227;stroke-linecap:butt;stroke-linejoin:miter;stroke-miterlimit:4;stroke-opacity:1;stroke-dasharray:none;marker-end:url(#Arrow1Lend)" />
      <text
         x="7332.0869"
         y="-1345.9438"
         id="text10670-9-4"
         xml:space="preserve"
         style="font-size:857.95251465px;font-style:normal;font-variant:normal;font-weight:normal;font-stretch:normal;text-align:start;text-anchor:start;fill:#000000;fill-opacity:1;stroke:none;font-family:Arab;-inkscape-font-specification:Arab"><tspan
           x="7332.0869"
           y="-1345.9438"
           id="tspan10710-9">Forward Vector</tspan></text>
    </g>
  </g>
  <g
     transform="translate(0,-10629.92)"
     id="layer4"
     style="opacity:0.75903614;display:inline">
    <image
       xlink:href="file:///home/juanpi/Projects/Eze/steeringbehaviors/steeringbehaviors/src/GameData/Avatar.png"
       x="536.06055"
       y="11214.715"
       width="13101.106"
       height="16546.945"
       id="image10134" />
  </g>
  <g
     transform="translate(0,-10629.92)"
     id="layer5">
    <g
       id="Intelligence">
      <g
         transform="matrix(0.67052366,0,0,0.67052366,14163.273,-4966.7043)"
         id="g12959">
        <path
           d="m -13098.477,19898.273 c 54.094,-37.866 216.375,-131.124 278.605,-164.965 62.23,-33.798 127.142,-74.347 179.851,-98.71 52.71,-24.321 73.049,-37.866 106.847,-59.504 33.798,-21.637 85.208,-58.161 147.395,-86.55 62.229,-28.432 108.188,-56.777 193.396,-70.322 85.209,-13.502 196.08,-25.705 262.334,-29.773 66.211,-4.111 109.486,-4.111 189.329,-14.93 79.799,-10.819 113.597,-9.434 167.691,-25.662 54.094,-16.229 140.644,-36.525 182.578,-31.115 41.933,5.409 129.825,13.502 164.964,20.296 35.14,6.751 132.509,29.773 132.509,29.773 0,0 44.617,-8.136 67.596,-10.819 22.979,-2.683 89.233,-8.135 108.187,-6.794 18.955,1.385 73.049,10.819 106.89,17.613 33.755,6.708 73.048,24.321 101.437,25.662 28.388,1.385 86.55,0 121.69,-2.683 35.139,-2.683 106.889,-4.024 147.395,2.683 40.592,6.794 91.05,20.729 102.345,29.298 11.252,8.568 30.206,9.91 30.206,9.91 0,0 31.115,-9.521 49.983,-18.955 18.955,-9.477 51.411,-18.954 81.141,-18.954 29.773,0 81.141,4.024 121.69,14.843 40.548,10.819 91.9592,36.524 125.7571,55.479 33.7546,18.954 86.5503,55.392 120.3049,68.937 33.7978,13.502 85.252,20.296 114.9387,23.022 29.7733,2.683 89.2333,8.136 113.5972,14.844 24.3206,6.794 101.4369,31.114 135.2348,50.069 33.7978,18.954 121.6896,81.141 177.1683,106.803 55.4355,25.705 102.7784,64.913 137.9611,79.799 35.1394,14.844 58.1618,28.389 82.4824,35.14 24.3206,6.751 167.6911,47.343 202.8738,63.571 35.1827,16.228 139.3026,82.482 171.759,112.256 32.4563,29.73 117.7083,120.348 133.9365,155.487 16.2281,35.139 43.2751,94.686 49.9827,112.256 6.751,17.569 16.2282,39.207 16.2282,39.207 0,0 37.8658,25.705 63.6144,41.934 25.7055,16.228 90.6182,63.571 123.0745,105.504 32.4563,41.891 64.9127,86.551 106.8463,144.669 41.9336,58.162 102.7784,169.076 119.0066,212.351 16.2282,43.275 45.9582,169.033 48.6845,187.944 2.7263,18.954 18.9545,31.115 18.9545,31.115 0,0 37.8657,41.933 55.3922,50.026 17.5697,8.136 69.0238,47.343 93.3011,71.707 24.3207,24.32 52.7524,60.845 68.9806,93.301 16.2282,32.456 37.433,86.074 41.9769,120.348 4.5006,34.317 6.7076,100.052 4.0678,117.665 -2.683,17.57 12.1603,58.162 12.1603,58.162 0,0 21.6376,39.207 35.1394,60.845 13.5019,21.637 41.9336,63.571 55.4355,90.618 13.5018,27.047 50.026,113.597 58.1617,154.146 8.1358,40.592 13.5019,141.985 8.1358,182.578 -5.3662,40.548 -18.9546,143.327 -29.7733,181.236 -10.8188,37.909 -28.3885,110.871 -36.5242,125.801 -8.1358,14.843 -10.8188,71.663 -12.1603,101.393 -1.3416,29.773 -14.8867,146.054 -27.047,181.236 -12.1603,35.14 -33.7979,96.028 -51.4109,123.075 -17.6129,27.047 -74.4332,89.233 -97.369,106.803 -22.9791,17.613 -100.0521,54.094 -150.1647,58.162 -49.9827,4.067 -156.8723,-8.136 -194.738,-17.57 0,0 -129.8254,-33.798 -159.5987,-37.866 -29.7733,-4.068 -154.146,-4.068 -190.6702,2.683 -36.5242,6.794 -201.489,48.685 -239.3547,63.571 -37.8657,14.887 -166.3496,67.596 -215.0341,85.209 -48.6845,17.613 -182.5778,67.596 -213.6926,79.799 -31.1581,12.161 -140.6441,54.094 -188.0304,64.913 -47.343,10.819 -131.1236,32.456 -173.1005,39.207 -41.9336,6.751 -175.7835,25.706 -209.6247,25.706 -33.8411,0 -128.4838,4.024 -167.6911,8.136 -39.2073,4.067 -119.0064,20.296 -158.2134,33.797 -39.164,13.546 -146.054,43.276 -177.169,56.777 -31.115,13.502 -174.442,60.845 -221.785,70.322 -47.343,9.478 -192.055,45.959 -240.696,45.959 -48.641,0 -177.212,-9.434 -212.308,-6.751 -35.139,2.683 -154.146,16.228 -200.147,20.296 -46.002,4.068 -160.94,22.979 -213.693,22.979 -52.752,0 -127.142,-10.819 -168.989,-20.296 -41.977,-9.434 -110.871,-32.457 -177.212,-52.709 0,0 -119.006,-48.685 -178.51,-68.981 -59.503,-20.296 -197.421,-51.411 -236.671,-75.731 -39.251,-24.321 -128.484,-62.23 -154.146,-89.234 0,0 -70.322,-79.756 -86.551,-110.87 -16.228,-31.115 -47.386,-112.256 -48.684,-147.396 -1.342,-35.182 8.136,-121.689 13.502,-147.438 5.409,-25.662 22.979,-86.55 36.524,-112.212 13.502,-25.706 52.796,-78.415 52.796,-78.415 0,0 -32.457,24.321 -48.685,25.706 -16.228,1.384 -87.892,1.341 -124.416,-14.887 -36.567,-16.228 -209.668,-85.209 -243.423,-104.12 -33.797,-18.955 -162.281,-75.731 -213.692,-97.369 -51.411,-21.638 -123.075,-55.435 -174.442,-73.048 -51.411,-17.57 -129.826,-44.617 -175.784,-54.094 -45.958,-9.434 -112.255,-40.592 -154.146,-66.255 -41.89,-25.662 -90.618,-58.161 -113.597,-85.208 -22.936,-27.047 -78.414,-87.892 -93.258,-110.871 -14.93,-22.979 -50.026,-70.322 -67.596,-86.55 -17.569,-16.229 -71.663,-81.141 -93.301,-128.484 -21.637,-47.343 -48.684,-113.597 -60.801,-158.214 -12.161,-44.617 -16.228,-97.369 -18.955,-119.007 -2.683,-21.637 -6.751,-52.752 -6.751,-52.752 0,0 -16.228,-37.866 -24.32,-64.913 -8.136,-27.047 -14.887,-113.597 -10.819,-154.146 4.068,-40.549 16.228,-106.846 25.705,-143.327 9.478,-36.567 56.777,-178.51 56.777,-178.51 0,0 4.068,-63.614 9.478,-89.233 5.409,-25.706 22.979,-94.686 37.865,-121.69 14.887,-27.004 64.913,-101.48 83.867,-129.825 18.955,-28.432 105.505,-143.327 105.505,-143.327 0,0 50.026,-94.686 67.596,-121.69 17.57,-27.004 79.843,-117.708 116.324,-151.463 36.524,-33.841 139.302,-133.937 171.758,-158.257 32.414,-24.494 137.832,-100.182 137.832,-100.182 z"
           id="path12221"
           style="fill:#87deaa" />
        <path
           d="m -12003.141,23289.398 c 16.748,3.116 30.769,13.242 46.911,18.219 47.343,14.8 91.18,33.971 135.927,53.358 1.255,0.563 2.769,0 3.375,-1.384 0.563,-1.255 -0.09,-2.77 -1.298,-3.376 -30.595,-12.463 -54.007,-37.087 -85.641,-47.905 -14.887,-5.15 -28.908,-10.603 -44.79,-13.675 -18.349,-3.592 -35.616,-5.237 -53.185,-9.478 l 0,0 c -1.082,-0.389 -2.337,0.347 -2.683,1.515 -0.347,1.168 0.259,2.38 1.384,2.726 l 0,0 z"
           id="path12223"
           style="fill:#8f5946" />
        <path
           d="m -10351.848,23368.375 c 0,0 175.783,-67.595 227.194,-81.14 51.411,-13.546 159.5987,-45.959 209.6248,-47.3 50.026,-1.385 215.0341,-9.521 266.4016,-14.93 51.3676,-5.409 189.3287,-35.14 246.149,-51.411 56.8202,-16.271 183.9192,-56.777 243.4225,-78.414 59.5033,-21.638 213.6926,-81.141 265.0602,-100.053 51.4108,-18.954 148.7799,-59.503 200.1474,-75.731 51.4109,-16.228 159.5987,-48.685 210.9663,-48.685 51.4108,0 129.8253,-10.818 164.9647,0 35.1394,10.819 86.5503,37.866 97.3691,75.732 10.8187,37.866 35.1394,89.233 29.7733,132.508 -5.3662,43.275 -8.1358,110.871 -40.5921,148.78 -32.4564,37.909 -35.1394,43.275 -62.2296,73.049 -27.0903,29.773 -45.9582,56.777 -75.7315,81.14 -29.7733,24.364 -54.0939,54.094 -73.0484,75.732 -18.9545,21.638 -32.4564,40.592 -51.4109,51.411 -18.9545,10.819 -48.6845,24.32 -48.6845,24.32 0,0 0,21.638 -10.8188,43.276 -10.8187,21.637 -62.2296,56.777 -62.2296,56.777 l -16.2282,40.592 c 0,0 -8.1357,24.32 -32.4563,45.958 -24.3206,21.637 -75.7315,56.777 -75.7315,56.777 l -43.2751,35.139 c 0,0 -37.8657,35.14 -70.3221,48.685 -32.4563,13.501 -54.0939,27.047 -78.4145,40.592 -24.3206,13.545 -67.5958,48.684 -108.1878,56.777 -40.5921,8.092 -162.2817,21.637 -221.785,18.954 -59.5033,-2.683 -216.3757,-10.819 -270.4696,-24.32 -54.0939,-13.502 -175.7835,-67.596 -219.0587,-94.686 -43.2751,-27.091 -167.6911,-121.69 -216.3756,-151.463 -48.6841,-29.774 -110.8711,-75.732 -156.8721,-100.052 -46.002,-24.321 -75.732,-43.276 -119.007,-73.049 -43.275,-29.773 -70.322,-48.684 -78.414,-73.048 -8.093,-24.321 -29.73,-91.917 -29.73,-91.917 z"
           id="path12225"
           style="fill:#e0cbbd" />
        <path
           d="m -11334.107,19454.27 c 10.126,1.601 19.127,-2.467 28.864,-4.5 114.333,-26.139 210.534,-86.81 327.074,-91.744 88.108,-3.851 174.658,12.377 257.79,39.424 104.12,12.853 208.24,-18.955 313.312,10.343 53.877,14.93 104.336,38.082 138.61,83.65 55.219,73.438 60.628,164.792 58.811,251.083 -2.034,105.028 -48.901,199.931 -92.696,295.05 -16.444,35.572 -22.33,73.913 -16.011,112.861 0.908,4.501 5.193,7.66 9.737,6.967 4.673,-0.908 7.876,-5.193 7.01,-9.693 -10.602,-67.207 25.229,-127.835 52.752,-187.338 31.332,-67.423 52.969,-137.529 56.345,-210.966 3.375,-78.891 -4.501,-159.383 -40.333,-231.219 -77.073,-155.791 -274.97,-146.314 -425.091,-134.326 -61.105,4.717 -115.631,-24.581 -176.476,-32.457 -76.208,-9.693 -147.871,-9.693 -225.637,4.284 -90.834,16.229 -157.781,69.414 -246.798,89.926 -9.001,2.034 -17.786,6.318 -27.263,4.111 -1.082,0 -2.034,1.082 -2.034,2.251 0,1.168 0.909,2.293 2.034,2.293 l 0,0 z"
           id="path12229"
           style="fill:#8f5946" />
        <path
           d="m -10338.779,19799.346 c -13.069,64.22 -2.251,130.734 16.012,193.18 -10.603,62.23 -4.068,124.633 -9.694,187.252 -4.501,53.401 -25.965,102.345 -59.287,146.572 -60.845,80.233 -119.007,153.714 -199.066,210.058 -101.653,118.098 -89.233,280.812 -129.306,426 -11.035,39.943 -34.75,72.832 -55.002,107.755 l 0,0 c -2.034,4.328 0,9.434 4.327,11.252 4.284,2.077 9.218,0 11.252,-4.284 57.902,-82.05 74.822,-180.328 88.151,-279.688 12.853,-93.777 34.274,-193.396 104.812,-260.343 78.199,-51.411 130.735,-126.233 189.113,-201.965 35.832,-46.218 56.56,-98.494 62.619,-155.054 4.501,-43.795 -1.818,-87.286 2.943,-130.951 1.125,-11.468 1.341,-23.195 4.717,-34.923 2.034,-6.967 1.601,-14.93 -0.217,-22.114 -16.012,-64.696 -40.592,-126.926 -26.83,-192.055 0,-1.341 -0.909,-2.25 -2.034,-2.553 -1.169,-0.173 -2.294,0.693 -2.51,1.861 l 0,0 z"
           id="path12231"
           style="fill:#8f5946" />
        <path
           d="m -10652.308,20351.104 c -13.069,56.171 12.853,112.039 30.207,165.441 5.842,18.045 6.101,36.957 5.625,55.911 0,5.193 4.285,9.434 9.478,9.434 5.193,0 9.52,-4.284 9.736,-9.434 2.034,-21.205 0.693,-42.366 -5.625,-62.922 -16.012,-52.969 -47.992,-102.043 -45.309,-157.781 0.216,-1.125 -0.476,-2.25 -1.861,-2.553 -1.125,-0.13 -2.251,0.735 -2.251,1.904 l 0,0 z"
           id="path12233"
           style="fill:#8f5946" />
        <path
           d="m -12044.555,19951.934 c 80.016,-10.386 159.426,-21.421 241.172,-9.477 67.596,9.91 132.076,21.205 191.796,58.162 60.628,37.433 105.288,88.151 154.146,136.576 2.25,2.683 6.318,2.899 8.785,0.692 2.683,-2.25 2.899,-6.101 0.692,-8.785 -55.695,-62.878 -112.905,-130.041 -192.92,-162.714 -74.131,-30.422 -152.805,-38.991 -231.479,-38.342 -57.686,0.476 -114.506,15.493 -172.192,19.387 -1.125,0 -2.034,1.082 -2.034,2.251 0,1.125 0.909,2.25 2.034,2.25 l 0,0 z"
           id="path12235"
           style="fill:#8f5946" />
        <path
           d="m -11482.411,19793.028 c -27.48,26.614 -58.162,45.742 -91.743,66.514 -53.402,32.889 -61.754,103.687 -27.047,151.246 2.683,4.068 7.876,5.41 11.944,2.683 4.068,-2.466 5.409,-7.659 2.683,-11.727 -30.855,-43.492 -20.729,-103.298 24.104,-135.451 30.942,-22.374 55.912,-45.569 82.742,-70.106 0.909,-0.736 0.909,-2.034 0.216,-2.943 -0.692,-0.909 -1.99,-1.125 -2.899,-0.216 l 0,0 z"
           id="path12237"
           style="fill:#8f5946" />
        <path
           d="m -11686.194,19955.31 c 12.161,7.659 24.321,15.103 41.458,9.91 l 5.842,0.259 c 2.683,-0.476 5.193,-2.293 6.535,-4.976 l -3.376,2.683 c 6.492,-5.193 13.502,-9.694 16.012,-19.604 l 3.376,-5.842 -16.185,-3.592 0.692,-1.385 c -4.284,9.521 -4.068,19.82 -7.876,29.341 -0.736,2.25 -3.159,4.673 -5.193,4.933 -3.159,0 -6.145,-2.467 -9.218,-4.068 l -0.735,16.964 -7.444,-4.327 0.909,1.341 c 1.558,2.683 4.501,4.284 7.443,4.284 l 5.626,-0.216 c 19.387,-2.856 37.433,-18.046 36.048,-38.948 l -0.216,-0.259 c 0,-2.467 -1.125,-4.89 -3.159,-6.492 -3.376,-2.683 -8.352,-2.033 -11.035,1.342 l -2.683,4.284 c -0.909,6.535 -5.41,11.035 -8.266,16.704 l -3.159,9.218 3.592,-4.284 -1.818,0.909 0,0 -2.034,1.601 9.91,5.409 -0.216,-1.298 0,0 -0.216,-0.736 -1.082,4.501 2.25,-3.808 c 9.218,-17.83 5.626,-41.025 20.902,-55.695 l 1.601,-2.9 -4.284,3.159 2.683,-0.736 c 2.077,-0.432 3.851,-1.817 4.501,-3.851 l 1.341,-3.592 c 0.216,-0.433 0.216,-0.692 0.476,-0.909 v -0.216 l -12.636,0.433 0.909,2.25 0.476,-5.409 -3.592,6.967 c -7.963,29.773 -27.566,62.446 -4.328,90.618 1.601,2.943 5.41,4.111 8.569,2.553 2.942,-1.817 4.068,-5.625 2.51,-8.568 -17.786,-23.672 -3.852,-51.151 4.933,-75.039 l 3.159,-9.694 c 0.909,-1.558 1.125,-3.592 0.693,-5.193 l -0.693,-2.467 c -0.692,-2.033 -2.51,-3.808 -4.717,-4.327 -3.592,-0.909 -7.227,1.341 -7.919,4.717 v 0.476 l 0.216,-0.909 -1.341,3.592 4.5,-3.851 -2.683,0.432 c -1.817,0.476 -3.375,1.818 -4.284,3.419 l -7.443,9.434 c -6.319,16.921 -17.137,32.456 -4.328,55.003 l -12.377,-3.809 c -1.125,1.342 -1.557,2.9 -1.341,4.501 v 0.909 l 0,0 v 1.341 c 0,0.909 0.216,1.558 0.692,2.467 1.818,3.376 5.886,4.717 9.261,3.159 l 2.51,-0.909 0,0 1.818,-0.735 c 1.601,-0.909 2.899,-2.51 3.592,-4.285 l 5.842,-12.636 c 1.601,-3.159 3.375,-6.102 5.193,-9.001 -4.717,-1.558 -9.478,-3.159 -14.195,-4.717 l 16.012,1.125 c 1.082,-1.341 1.818,-3.159 1.818,-4.933 l -16.228,7.659 c 0,-0.432 0,-0.649 0,-1.081 -1.818,6.318 -6.535,9.91 -11.944,12.852 l -13.502,3.592 7.443,4.284 -1.038,-1.601 c -1.299,-2.467 -4.285,-4.284 -7.444,-4.068 l 4.717,18.738 c 20.08,6.968 29.081,-16.011 31.331,-31.374 l 3.592,-16.445 0,0 -19.387,4.934 c -3.375,0.692 -3.808,4.068 -5.626,6.102 l -7.443,8.308 7.443,-4.933 -6.102,0.649 c -10.818,8.352 -25.489,5.669 -37.433,0.909 l 0,0 c -1.817,-0.693 -4.067,0.216 -4.716,2.034 -0.65,1.817 0.259,4.068 2.077,4.717 l 0.432,-1.298 z"
           id="path12239"
           style="fill:#8f5946" />
        <path
           d="m -11054.636,19609.758 c 22.373,26.354 33.192,58.421 41.717,92.479 8.785,35.572 15.536,70.322 12.636,105.894 -2.466,29.081 1.125,57.253 -2.466,86.117 -9.91,81.358 -46.218,152.372 -81.617,225.161 -39.424,81.833 -92.176,147.179 -144.972,225.16 -56.604,83.175 -120.305,163.883 -221.569,176.52 -67.769,8.525 -129.609,-24.581 -187.987,-58.595 -93.301,-54.786 -164.532,-120.608 -256.059,-182.318 -34.057,-22.979 -70.322,-35.616 -109.313,-42.583 -1.558,-0.433 -2.899,0.476 -3.332,1.818 -0.519,1.601 0.433,2.942 1.818,3.375 71.62,17.354 129.825,62.057 186.818,110.482 92.696,78.847 182.621,154.146 304.051,184.135 35.399,8.785 69.587,9.694 102.995,-3.159 146.746,-56.777 213.217,-208.932 302.234,-326.597 45.092,-78.891 86.766,-158.474 111.303,-247.923 22.547,-82.05 24.321,-163.883 4.501,-247.491 -9.477,-40.592 -34.49,-72.139 -57.253,-104.812 -0.692,-0.909 -2.034,-1.342 -2.943,-0.693 -0.779,0.563 -1.211,1.948 -0.562,3.03 l 0,0 z"
           id="path12241"
           style="fill:#8f5946" />
        <path
           d="m -10778.541,19661.861 c -10.386,46.651 -45.958,77.333 -80.405,108.404 -47.776,43.059 -94.903,79.107 -131.903,134.542 -13.069,19.604 -16.444,40.593 -22.546,61.754 l 0,0 c -1.558,4.501 0.909,9.434 5.626,10.819 4.5,1.558 9.477,-0.909 10.818,-5.41 7.227,-20.079 11.728,-40.116 24.105,-59.07 61.104,-93.777 170.417,-141.553 198.33,-249.741 0.476,-1.125 -0.217,-2.25 -1.299,-2.683 -1.125,-0.216 -2.466,0.26 -2.726,1.385 l 0,0 z"
           id="path12243"
           style="fill:#8f5946" />
        <path
           d="m -11435.977,20532.297 c 16.704,-0.693 32.673,-7.876 49.161,-3.852 l 0.433,0.217 -6.102,-2.251 1.601,1.299 c 30.163,53.877 26.311,118.79 27.263,179.029 -22.373,139.302 -94.469,260.559 -183.919,374.157 -12.377,15.752 -26.831,36.048 -18.955,57.685 1.602,5.193 7.227,8.352 12.637,6.751 5.409,-1.558 8.309,-7.227 6.751,-12.636 -4.501,-15.103 6.751,-27.956 15.103,-38.558 77.549,-99.23 139.735,-198.633 173.62,-318.072 24.104,-84.733 26.527,-182.319 -17.354,-259.651 l -4.717,-4.068 c -1.514,-1.342 -3.808,-2.25 -5.842,-2.25 h -8.612 c -13.718,6.707 -27.739,12.117 -42.15,16.92 -1.817,0.217 -2.942,2.034 -2.466,3.808 0.216,1.818 2.034,2.9 3.808,2.467 l -0.26,-0.995 z"
           id="path12245"
           style="fill:#8f5946" />
        <path
           d="m -11356.437,20602.879 c -5.193,-43.968 2.034,-89.926 32.24,-123.767 l 5.842,-7.227 c 0.216,-0.693 0.476,-1.299 0.476,-2.034 0.216,-4.068 -2.683,-7.66 -6.751,-7.876 l -2.25,-0.433 c -3.808,-0.216 -7.011,2.25 -7.876,5.842 l -0.217,1.558 0.217,-0.909 -1.601,4.501 c -18.695,35.139 -29.514,73.481 -36.741,112.472 l -1.342,1.817 13.329,5.843 1.818,-5.15 c 6.534,-38.602 19.171,-75.732 41.674,-107.972 l 6.145,-8.784 c 0.476,-0.736 0.692,-1.342 0.692,-2.034 l 0.909,-3.592 c 0.692,-4.111 -1.601,-7.92 -5.409,-9.218 -4.112,-1.125 -8.569,1.082 -9.737,5.41 l -1.342,4.067 2.294,-3.591 -6.145,6.101 c -12.853,19.388 -24.321,40.592 -43.275,54.83 l -0.909,-1.342 11.295,7.011 v -0.519 c 0.692,-2.467 1.125,-4.89 1.817,-7.444 0.909,0.217 1.601,0.52 2.467,0.736 2.683,-3.159 2.553,-8.136 -0.693,-11.035 -3.159,-2.683 -8.135,-2.51 -11.035,0.692 -5.626,1.125 -9.693,4.068 -0.216,20.729 l -8.785,-2.034 c 0,0.217 0.216,0.736 0.216,0.909 l 19.604,2.467 c 14.887,-14.195 26.355,-30.856 37.39,-47.949 l 8.785,-11.295 c 0.908,-1.082 1.817,-2.25 2.25,-3.592 l 1.082,-4.284 -15.103,-3.808 -0.693,3.808 1.818,-3.592 -6.578,8.655 c -22.979,32.24 -34.966,70.106 -41.934,108.621 l -2.033,8.135 c -0.52,0.909 -0.52,1.818 -0.52,2.683 l 18.522,-5.625 c 0,0.216 0.216,0.476 0.216,0.692 5.843,-33.365 14.887,-66.47 29.774,-96.85 l 5.842,-15.535 c 0.259,-0.217 0.259,-0.693 0.259,-0.909 l 0.217,-1.298 -7.703,5.842 h 2.293 l -2.293,-13.978 -11.295,11.251 c -32.456,36.568 -29.297,85.036 -21.421,129.826 0.216,1.125 1.341,2.077 2.51,1.817 1.255,-0.432 2.12,-1.514 1.904,-2.639 l 0,0 z"
           id="path12247"
           style="fill:#8f5946" />
        <path
           d="m -12383.096,20983.743 c 34.49,56.128 87.026,94.686 145.621,124.2 141.077,71.23 286.481,6.318 433.184,-20.297 73.048,-13.285 151.463,-14.627 210.273,35.616 44.184,37.649 80.016,80.232 106.154,131.426 27.956,54.311 49.118,108.837 64.913,168.773 11.901,45.309 18.479,89.234 40.765,130.735 18.089,33.148 36.957,65.129 64.22,90.834 1.342,1.125 3.376,1.342 4.501,0 1.298,-1.125 1.298,-3.159 0.216,-4.501 -84.992,-117.491 -84.083,-268.435 -157.391,-395.794 -36.265,-63.095 -77.766,-125.757 -143.111,-157.305 -150.121,-72.14 -303.359,23.455 -455.99,34.49 -117.881,8.569 -239.095,-44.184 -309.893,-140.644 -0.693,-0.909 -2.034,-1.341 -2.9,-0.692 -0.995,0.692 -1.211,2.077 -0.562,3.159 l 0,0 z"
           id="path12249"
           style="fill:#8f5946" />
        <path
           d="m -12630.327,20854.177 c 15.536,-67.596 53.185,-126.45 87.675,-185.737 55.912,-61.537 118.791,-110.438 191.363,-158.69 71.664,-47.559 150.554,-47.083 230.137,-53.185 39.683,-2.942 68.721,-33.365 106.587,-44.876 40.116,-12.16 82.049,0 115.631,23.239 1.601,0.909 3.375,0.433 4.284,-1.125 0.909,-1.558 0.433,-3.592 -1.082,-4.501 -41.977,-32.889 -97.585,-52.276 -148.087,-26.355 -30.639,15.536 -60.239,31.548 -93.821,37.866 -168.124,-16.92 -308.075,98.278 -417.821,211.702 -33.192,63.788 -66.254,128.917 -78.891,200.148 l 0,0 c -0.216,1.081 0.217,2.466 1.342,2.899 1.082,0.173 2.467,-0.26 2.683,-1.385 l 0,0 z"
           id="path12251"
           style="fill:#8f5946" />
        <path
           d="m -11129.675,21018.926 c -105.938,163.623 4.5,354.509 81.616,505.799 25.706,84.733 24.105,212.308 -76.207,243.639 -5.193,1.558 -8.309,7.227 -6.751,12.637 1.601,5.193 7.227,8.352 12.636,6.75 48.209,-14.886 88.368,-55.911 98.711,-107.279 6.491,-32.672 5.842,-63.83 3.808,-96.287 -3.808,-65.129 -40.159,-118.79 -68.504,-176.216 -25.013,-50.978 -47.603,-100.052 -60.412,-156.872 -17.57,-78.675 -29.99,-162.066 18.954,-229.878 0.692,-1.125 0.216,-2.467 -0.909,-3.159 -0.909,-0.476 -2.293,-0.26 -2.942,0.866 l 0,0 z"
           id="path12253"
           style="fill:#8f5946" />
        <path
           d="m -12361.459,21328.386 c 55.219,-86.291 160.984,-120.088 260.776,-106.37 114.723,16.012 209.149,92.695 250.174,198.33 56.604,146.313 50.286,318.072 171.283,435.304 63.787,61.537 153.929,79.107 235.719,51.541 5.41,-0.433 9.737,-5.15 9.521,-10.819 -0.476,-5.409 -5.193,-9.694 -10.819,-9.477 -66.254,22.762 -137.961,17.569 -196.772,-26.831 -33.192,-24.753 -56.993,-53.877 -78.241,-89.233 -67.38,-113.814 -62.663,-242.73 -112.472,-359.53 -28.605,-67.163 -74.823,-125.498 -139.303,-164.748 -127.315,-77.117 -330.708,-70.798 -394.886,78.631 -1.125,1.817 -0.476,4.284 1.082,5.193 1.818,1.082 4.328,0.432 5.193,-1.126 l -1.255,-0.865 z"
           id="path12255"
           style="fill:#8f5946" />
        <path
           d="m -12609.815,21545.411 c -11.943,-68.938 -0.692,-149.429 55.696,-197.897 46.607,-40.333 110.221,-46.651 165.613,-22.547 57.47,24.97 98.105,70.755 130.951,124.157 49.377,80.232 80.016,161.849 116.324,245.932 43.751,101.177 122.122,185.261 223.083,228.796 2.034,1.298 4.976,0.692 6.145,-1.342 1.298,-2.034 0.692,-4.976 -1.342,-6.102 -94.21,-50.761 -167.474,-134.802 -210.966,-233.123 -34.274,-77.289 -64.004,-152.761 -105.245,-227.887 -54.354,-98.277 -157.348,-194.045 -274.797,-156.179 -35.313,11.554 -67.379,31.547 -88.108,64.912 -19.344,30.899 -28.865,63.095 -32.933,98.105 -3.375,28.864 7.227,55.652 11.036,83.867 0.216,1.125 1.341,1.991 2.51,1.818 1.341,-0.217 2.033,-1.125 2.033,-2.51 l 0,0 z"
           id="path12257"
           style="fill:#8f5946" />
        <path
           d="m -12797.109,21825.401 c 102.995,-49.377 218.885,-13.502 311.927,52.276 80.708,56.777 145.318,112.689 228.103,165.441 104.12,66.514 223.603,90.402 340.316,65.129 2.034,-0.216 3.159,-2.034 2.942,-4.068 -0.476,-1.817 -2.293,-3.159 -4.327,-2.683 -102.562,7.963 -207.807,-4.284 -300.892,-56.95 -107.669,-60.888 -188.81,-143.803 -295.915,-207.158 -87.849,-51.627 -194.522,-61.104 -284.188,-15.795 l 0,0 c -1.125,0.432 -1.558,1.817 -0.909,2.942 0.433,1.082 1.818,1.515 2.943,0.866 l 0,0 z"
           id="path12259"
           style="fill:#8f5946" />
        <path
           d="m -12623.36,21805.321 c 39.684,7.876 80.925,-7.227 119.916,4.977 l 4.933,0.433 -6.708,-4.285 0.693,1.299 c 0.692,1.601 2.034,2.942 3.592,3.851 l 3.592,1.818 -4.285,-5.15 0.693,2.683 c 0.692,2.467 2.51,4.501 4.717,5.409 l 1.601,0.693 0,0 0.909,0.476 -4.501,-4.977 0.476,1.125 c 4.501,28.865 9.694,58.595 31.115,80.405 l -0.217,-2.25 c 1.342,2.25 3.592,3.592 6.102,3.852 4.111,0 7.444,-3.159 7.444,-7.227 v -0.866 l 0,0 -0.217,-0.519 c 0.217,-3.376 -2.25,-6.318 -5.626,-7.011 l -1.341,-0.216 0,0 -1.818,-0.216 3.159,1.601 -1.601,-1.342 c -26.311,-30.163 -43.491,-84.256 -91.959,-80.232 h -4.155 c -1.817,0 -3.375,0.693 -4.717,1.818 l -3.592,2.856 c -0.908,0.735 -1.298,1.601 -1.817,2.293 -1.818,3.592 -0.433,7.92 3.159,9.694 l 0.736,0.433 c 0.908,0.519 2.034,0.735 3.115,0.735 h 2.294 c 17.31,1.818 35.356,-4.976 52.276,3.592 l 4.068,2.034 -2.943,-2.683 1.602,2.9 4.284,-9.91 -2.25,0.735 c -9.478,1.082 -18.262,-4.068 -27.74,-2.942 l -6.318,-0.217 c -1.558,0 -3.116,0.433 -4.284,1.125 l -3.159,2.51 0,0 c -3.159,1.991 -3.808,6.318 -1.558,9.434 l 5.885,7.963 c 7.444,8.785 17.527,12.42 28.129,15.319 l 9.477,0.433 c 1.342,0.26 2.683,0 4.111,-0.649 3.116,-1.385 4.674,-5.409 3.116,-8.828 l -3.851,-6.968 c -12.853,-11.727 -27.956,-20.512 -44.833,-24.537 l -6.318,-2.509 4.284,6.145 -0.217,-1.602 -8.308,7.011 0,0 4.89,0.779 c 65.648,5.885 130.561,-26.138 170.201,-77.722 2.034,-1.601 2.25,-4.501 0.692,-6.535 -1.558,-2.034 -4.5,-2.25 -6.534,-0.692 -42.54,36.74 -93.518,67.379 -150.987,71.923 l -15.147,-0.909 c -0.692,-0.216 -1.601,-0.216 -2.25,0 -3.592,0.26 -6.318,3.592 -5.842,7.227 v -0.432 1.601 c 0,2.683 1.818,4.933 4.284,5.842 l 6.751,2.943 c 12.42,3.375 24.58,7.227 34.49,15.795 l 6.751,8.266 4.977,-9.218 -10.386,-1.082 h 0.216 c -2.25,-0.909 -4.5,-1.817 -6.751,-2.683 l -15.492,-14.67 -1.601,9.477 3.116,-2.25 -4.285,1.384 11.035,0.433 v -0.216 c 6.968,0.216 13.502,1.341 20.297,2.943 l 8.568,-1.342 c 0.736,-0.216 1.125,-0.476 1.818,-0.736 3.159,-1.817 4.327,-5.842 2.553,-9.26 l -1.601,-2.684 c -0.736,-1.125 -1.818,-2.25 -2.943,-2.726 l -9.001,-4.501 c -15.32,-6.145 -31.332,-1.601 -47.127,-3.159 -0.216,4.501 -0.433,9.002 -0.692,13.502 l -7.487,-13.718 3.159,0.692 -0.692,-0.432 1.341,11.944 3.592,-2.943 -4.501,1.601 h 10.603 l -0.216,0.216 c 38.082,2.943 49.117,47.56 72.788,71.015 l 5.41,6.145 c 0.908,0.692 2.034,1.342 3.159,1.601 l 1.601,0.649 0,0 1.341,0.217 -5.409,-7.011 -0.26,0.519 0,0 v 0.909 l 0,0 6.751,-11.944 c 0.217,0 0.217,-0.216 0.476,-0.216 -15.752,-16.445 -15.968,-38.082 -20.902,-58.768 l -1.817,-9.91 c -0.909,-2.25 -2.51,-4.068 -4.717,-4.673 l -0.909,-0.476 0,0 -1.817,-0.476 4.933,5.409 -0.692,-2.467 c -0.693,-2.293 -2.034,-4.327 -4.285,-5.193 l -3.592,-1.601 3.592,3.592 -0.735,-1.342 c -1.082,-2.683 -3.809,-4.284 -6.708,-4.5 l -4.933,-0.52 c -40.116,-7.876 -79.107,8.785 -119.223,6.145 l 0,0 c -1.125,-0.216 -2.294,0.433 -2.51,1.602 -0.26,0.779 0.389,1.86 1.514,2.12 l 0,0 z"
           id="path12261"
           style="fill:#8f5946" />
        <path
           d="m -12765.345,21808.913 c 53.185,-15.536 107.106,-11.728 162.498,-4.284 101.48,13.069 206.033,-33.582 269.171,-112.905 1.082,-1.125 1.082,-3.159 0,-4.501 -1.341,-1.082 -3.375,-1.082 -4.501,0 -55.911,65.173 -137.744,98.495 -221.049,110.871 -69.413,-2.943 -139.086,-15.795 -206.682,6.751 l 0,0 c -1.125,0 -2.034,1.082 -1.817,2.467 0.129,1.168 1.255,1.861 2.38,1.601 l 0,0 z"
           id="path12263"
           style="fill:#8f5946" />
        <path
           d="m -12978.562,22094.053 c 86.074,2.25 169.033,26.138 249.568,57.253 109.269,42.366 201.056,110.222 305.176,165.873 124.892,66.514 274.537,69.89 402.978,12.161 148.087,-66.471 230.786,-201.489 352.735,-305.003 23.888,-20.513 48.901,-34.274 74.823,-53.359 5.626,-4.068 12.853,-4.717 18.738,-9.001 32.457,-23.888 66.731,-37.649 103.471,-48.468 53.661,-15.795 107.279,-21.638 156.656,-50.935 73.698,-44.011 149.862,-68.072 231.695,-80.708 163.017,-49.81 332.483,-71.014 487.754,-150.771 13.285,-6.707 27.739,-11.727 39.424,-21.161 4.673,-2.51 6.491,-8.569 4.068,-13.329 -2.684,-4.673 -8.569,-6.491 -13.286,-3.808 -88.584,49.117 -181.453,82.266 -282.413,106.37 -120.825,28.865 -229.229,59.72 -350.053,88.368 -70.538,16.877 -124.2,63.095 -191.795,85.642 -29.557,9.693 -60.412,9.477 -89.71,19.82 -45.309,15.968 -85.425,36.957 -127.358,62.835 -92.652,57.253 -160.032,131.167 -231.695,211.486 -79.583,89.233 -176.693,153.496 -296.435,176.216 -44.573,8.568 -86.983,8.136 -130.907,2.943 -157.392,-18.263 -272.071,-133.894 -413.407,-193.613 -95.292,-40.16 -196.556,-64.004 -299.984,-63.312 -1.081,0 -2.034,1.082 -2.034,2.25 -0.04,1.126 0.866,2.251 1.991,2.251 l 0,0 z"
           id="path12265"
           style="fill:#8f5946" />
        <path
           d="m -13706.103,21920.26 c 39.423,31.547 66.211,71.231 96.46,114.506 59.936,85.858 133.893,149.429 223.819,196.079 81.141,42.15 172.192,31.332 259.867,34.707 51.195,2.034 100.745,6.751 152.805,17.829 102.778,21.854 200.147,33.149 293.665,73.914 1.341,0.693 2.942,0 3.375,-1.341 0.476,-1.298 -0.216,-2.9 -1.558,-3.376 -52.536,-21.854 -102.346,-52.752 -160.248,-57.209 -79.799,-25.057 -161.373,-39.467 -245.24,-47.387 -111.044,-10.559 -226.978,17.83 -327.722,-53.574 -89.45,-63.312 -158.474,-129.609 -223.819,-217.112 -19.128,-25.229 -45.526,-40.375 -68.721,-60.195 -0.909,-0.909 -2.251,-0.693 -2.943,0.216 -0.909,0.909 -0.649,2.25 0.26,2.943 l 0,0 z"
           id="path12267"
           style="fill:#8f5946" />
        <path
           d="m -13423.257,22198.173 c 21.854,15.795 42.15,32.932 65.995,46.65 58.594,33.539 125.151,31.721 187.294,53.185 75.732,26.355 147.612,55.696 220.184,89.969 90.835,42.8 185.261,72.573 271.378,123.032 96.461,36.048 183.66,90.142 289.165,109.096 30.639,5.41 60.412,-2.51 86.983,-16.964 4.976,-2.466 6.751,-8.741 4.068,-13.501 -2.467,-4.977 -8.742,-6.751 -13.502,-4.285 -30.206,18.479 -67.38,20.513 -100.269,10.083 -185.953,-58.378 -349.1,-156.872 -528.778,-224.035 -71.015,-38.774 -145.838,-66.947 -223.387,-92.392 -86.55,-28.432 -181.885,-30.639 -256.967,-84.56 -0.909,-0.736 -2.294,-0.433 -2.943,0.692 -0.563,0.996 -0.13,2.337 0.779,3.03 l 0,0 z"
           id="path12269"
           style="fill:#8f5946" />
        <path
           d="m -12387.121,22912.688 c -0.216,-54.094 6.318,-90.618 12.161,-144.712 7.659,-68.504 51.41,-120.564 87.242,-177.817 69.63,-73.914 139.562,-147.612 216.376,-214.126 108.188,-70.322 201.489,-155.53 293.232,-249.913 70.539,-72.356 144.236,-133.634 232.388,-185.521 98.45,-57.902 204.648,-81.833 305.608,-127.791 2.51,-1.342 3.592,-4.284 2.51,-6.751 -1.125,-2.467 -4.111,-3.592 -6.534,-2.467 -47.56,19.387 -93.301,41.458 -143.154,56.561 -59.028,17.829 -116.107,29.6 -169.985,62.878 -87.459,53.878 -160.248,113.814 -231.479,185.045 -58.81,58.594 -112.472,114.506 -177.384,167.258 -51.584,42.15 -106.89,70.755 -154.363,116.713 -66.038,64.221 -131.426,119.223 -187.294,194.738 -41.934,56.128 -63.355,120.824 -67.596,188.247 -3.592,54.527 -19.387,107.279 -14.93,162.065 0,1.082 -0.693,-75.731 0.476,-75.731 1.082,0 14.887,-92.219 14.887,-93.344 l -12.161,144.668 z"
           id="path12271"
           style="fill:#8f5946" />
        <path
           d="m -13349.776,21418.528 c -21.205,78.025 -3.851,162.065 47.603,225.896 77.029,95.076 184.611,150.987 249.74,253.333 0.736,1.125 2.034,1.601 3.16,0.909 1.125,-0.736 1.341,-2.294 0.692,-3.376 -26.138,-36.784 -44.357,-77.549 -75.212,-111.78 -52.06,-57.902 -120.348,-88.108 -166.177,-155.054 -43.275,-63.831 -72.139,-134.802 -55.608,-209.149 0.216,-1.125 -0.52,-2.25 -1.601,-2.51 -1.472,-0.303 -2.597,0.606 -2.597,1.731 l 0,0 z"
           id="path12273"
           style="fill:#8f5946" />
        <path
           d="m -13324.546,21592.797 c 14.929,30.422 29.6,61.754 60.022,80.448 37.13,22.72 82.439,17.137 118.747,-6.318 70.322,-45.309 96.071,-125.324 167.951,-165.181 83.867,-46.434 175.956,-23.931 266.575,-34.966 66.037,-8.136 107.279,-62.23 141.163,-113.597 0.909,-1.342 0.692,-3.159 -0.736,-4.068 -1.298,-1.125 -3.115,-0.693 -4.068,0.692 -40.592,53.878 -96.676,100.528 -167.258,100.745 -83.175,0.216 -169.941,-7.227 -246.582,34.274 -62.619,33.797 -92.176,98.104 -142.894,146.053 -28.388,26.831 -63.312,43.275 -102.778,37.433 -41.934,-6.102 -68.981,-42.15 -86.118,-77.333 l 0,0 c -0.692,-0.908 -1.817,-1.557 -2.856,-0.908 -1.168,0.432 -1.601,1.817 -1.168,2.726 l 0,0 z"
           id="path12275"
           style="fill:#8f5946" />
        <path
           d="m -13836.837,20869.497 c 2.51,20.296 0.908,41.241 -5.41,59.503 -46.867,136.836 -91.224,273.152 -75.948,418.773 16.229,155.055 163.883,247.491 303.402,278.606 2.294,0.908 4.501,-0.52 5.193,-2.554 0.909,-2.25 -0.432,-4.5 -2.466,-5.409 -93.778,-39.857 -195.864,-76.813 -253.549,-170.547 -42.843,-69.414 -39.467,-145.621 -34.491,-221.093 6.102,-91.527 37.174,-176.692 65.605,-264.151 9.737,-30.423 4.112,-62.23 2.294,-93.561 l 0,0 c -0.216,-1.125 -1.342,-2.034 -2.51,-2.034 -1.212,0.216 -2.12,1.341 -2.12,2.467 l 0,0 z"
           id="path12277"
           style="fill:#8f5946" />
        <path
           d="m -13667.156,21469.679 c 2.51,137.269 112.256,232.388 218.626,301.368 1.125,0.693 2.683,0.433 3.592,-0.692 0.909,-1.125 0.736,-2.943 -0.433,-3.895 -95.335,-77.03 -203.523,-167.691 -217.674,-297.516 l 0,0 c 0,-1.082 -1.125,-2.034 -2.509,-1.818 -1.126,0.346 -1.818,1.471 -1.602,2.553 l 0,0 z"
           id="path12279"
           style="fill:#8f5946" />
        <path
           d="m -13901.534,21381.831 c 2.034,32.456 16.661,62.402 19.388,94.21 3.808,48.901 8.352,95.118 19.82,143.803 21.637,93.085 56.127,172.408 111.996,251.991 49.809,70.538 120.131,109.097 199.022,132.682 85.641,25.532 167.951,47.386 251.731,75.991 28.172,9.477 50.286,28.345 75.732,42.366 1.125,0.649 2.51,0.216 3.159,-0.909 0.692,-1.125 0.216,-2.553 -0.736,-2.942 -65.994,-47.084 -136.793,-82.483 -217.284,-103.688 -59.504,-15.492 -116.757,-28.561 -171.283,-55.392 -186.819,-91.527 -232.388,-310.629 -258.959,-501.559 -2.683,-19.776 -16.444,-36.956 -23.455,-56.56 -2.466,-6.751 -3.115,-13.978 -4.933,-20.902 -0.26,-1.125 -1.558,-2.077 -2.683,-1.818 -1.125,0.217 -2.034,1.515 -1.818,2.683 h 0.303 v 0.04 z"
           id="path12281"
           style="fill:#8f5946" />
        <path
           d="m -13012.143,20977.901 c -10.819,20.296 -18.955,41.674 -37.866,56.344 -62.403,47.992 -119.007,88.151 -163.84,155.314 -42.366,63.355 -59.287,134.543 -51.627,207.115 0,2.294 2.034,4.111 4.284,4.111 2.294,0 4.328,-1.817 4.328,-4.111 -4.068,-127.272 69.197,-241.389 176.692,-315.995 36.741,-25.705 57.686,-60.845 71.923,-100.744 0.693,-1.082 0.217,-2.51 -0.908,-2.9 -1.169,-0.692 -2.337,-0.259 -2.986,0.866 l 0,0 z"
           id="path12283"
           style="fill:#8f5946" />
        <path
           d="m -13082.249,21228.55 c 9.218,-74.606 43.059,-144.712 66.947,-215.943 48.684,-80.621 124.632,-138.35 206.638,-186.775 66.99,-39.207 137.788,-56.777 204.865,-96.46 52.752,-30.899 82.958,-81.834 121.689,-125.325 1.342,-1.601 1.342,-3.592 0,-4.977 -1.298,-1.384 -3.591,-1.341 -4.89,0 -40.419,39.684 -75.515,83.868 -126.45,112.905 -68.288,38.948 -139.735,57.21 -207.158,97.586 -84.732,50.718 -162.757,111.563 -211.875,195.819 -22.979,73.049 -44.616,147.396 -54.31,223.127 0,1.125 1.125,2.034 2.25,2.034 1.169,0.04 2.294,-0.866 2.294,-1.991 l 0,0 z"
           id="path12285"
           style="fill:#8f5946" />
        <path
           d="m -13167.458,20867.03 c 22.547,-111.347 83.867,-213.26 182.621,-272.287 3.808,-3.376 4.068,-9.001 0.693,-12.896 -3.376,-3.592 -9.002,-3.808 -12.637,-0.433 -53.877,35.615 -103.903,78.415 -132.075,138.61 -22.071,46.651 -28.649,97.153 -42.843,145.837 -0.216,1.126 0.476,2.251 1.601,2.51 1.082,0.433 2.207,-0.216 2.64,-1.341 l 0,0 z"
           id="path12287"
           style="fill:#8f5946" />
        <path
           d="m -13013.961,20746.206 c 4.977,-11.555 11.728,-22.374 13.978,-35.01 8.352,-43.491 12.42,-83.175 22.546,-125.757 13.718,-58.768 56.344,-99.403 98.97,-138.827 51.152,-46.867 115.156,-63.528 168.773,-107.063 31.375,-25.705 52.493,-57.469 82.05,-84.992 43.059,-40.332 98.062,-53.618 154.146,-67.596 108.621,-27.047 210.966,-46.131 317.856,-76.813 24.104,-7.011 47.559,-13.978 70.755,-23.239 1.298,-0.649 1.817,-2.25 1.298,-3.375 -0.692,-1.385 -2.034,-1.818 -3.332,-1.385 -62.879,23.671 -127.143,31.158 -195.214,43.794 -68.245,12.853 -130.518,25.446 -197.638,42.15 -84.516,20.989 -159.815,53.661 -214.341,127.792 -16.445,22.33 -36.265,40.375 -61.321,51.843 -85.642,40.116 -160.032,91.7 -214.818,173.793 -39.424,59.287 -32.456,127.792 -37.173,193.137 -0.693,10.127 -5.41,20.296 -10.603,29.514 -0.433,1.125 0,2.553 1.125,2.943 1.169,0.649 2.294,0.216 2.943,-0.909 l 0,0 z"
           id="path12289"
           style="fill:#8f5946" />
        <path
           d="m -13778.459,21065.576 c -14.411,-32.673 -21.421,-66.254 -30.206,-101.696 -9.737,-39.424 -12.637,-76.165 -5.842,-116.064 13.069,-77.073 38.774,-144.453 82.049,-211.399 45.309,-70.322 100.745,-124.936 140.644,-194.738 2.683,-3.376 2.034,-8.352 -1.601,-11.035 -3.375,-2.51 -8.309,-1.818 -10.819,1.557 -95.551,124.676 -200.363,247.924 -226.069,411.114 -5.842,36.568 -2.899,70.582 4.068,107.755 8.136,42.583 29.297,77.073 43.751,115.848 0.217,1.125 1.558,1.601 2.683,1.341 1.082,-0.433 1.774,-1.558 1.342,-2.683 l 0,0 z"
           id="path12291"
           style="fill:#8f5946" />
        <path
           d="m -13497.171,20875.815 c 23.672,-121.69 119.223,-204.216 196.988,-293.016 48.252,-89.493 103.861,-174.442 166.566,-254.674 104.12,-104.38 228.32,-186.213 354.337,-261.945 4.284,-2.25 5.842,-7.659 3.592,-11.9 -2.294,-4.328 -7.703,-5.842 -11.944,-3.592 -10.602,2.25 -19.604,7.443 -28.865,13.329 -122.814,78.414 -238.013,146.053 -332.915,254.977 -67.596,77.981 -120.824,161.546 -165.398,252.424 -36.567,47.559 -80.232,84.992 -116.972,135.667 -37.65,52.276 -56.344,108.188 -69.414,167.475 -0.476,1.082 0.217,2.25 1.342,2.683 1.082,0.13 2.207,-0.303 2.683,-1.428 l 0,0 z"
           id="path12293"
           style="fill:#8f5946" />
        <path
           d="m -13504.182,20591.584 c 115.632,44.876 211.659,-52.493 277.178,-139.952 23.455,-31.331 42.582,-61.97 64.912,-92.176 1.125,-1.601 0.736,-3.592 -0.692,-4.76 -1.601,-0.909 -3.592,-0.649 -4.501,0.908 -54.57,63.355 -104.336,128.268 -168.989,184.829 -30.639,26.614 -64.22,43.275 -103.904,52.536 -21.421,4.933 -42.366,0.692 -62.662,-5.67 l 0,0 c -1.298,-0.216 -2.467,0.52 -2.683,1.602 -0.433,1.082 0.216,2.25 1.341,2.683 l 0,0 z"
           id="path12295"
           style="fill:#8f5946" />
        <path
           d="m -13122.798,21801.47 c -27.956,-28.648 -49.766,-69.63 -36.524,-110.438 36.524,-39.684 71.231,-78.675 99.187,-127.143 8.568,-14.627 18.954,-27.263 29.297,-40.332 1.125,-1.125 0.909,-3.159 -0.217,-4.111 -1.125,-1.082 -2.899,-0.909 -4.067,0.259 -19.388,24.494 -37.65,48.901 -57.47,74.347 -20.296,26.614 -40.765,49.161 -66.038,71.014 -29.773,25.966 -25.445,68.505 -8.308,100.053 9.477,17.137 27.046,27.047 40.592,40.721 1.601,1.342 3.851,1.126 4.976,-0.432 1.342,-1.601 1.125,-3.852 -0.433,-4.977 l -0.995,1.039 z"
           id="path12297"
           style="fill:#8f5946" />
        <path
           d="m -13576.538,20647.019 c -13.718,-19.387 -15.319,-41.977 -16.66,-64.696 -3.376,-55.695 2.033,-111.347 16.228,-165.225 75.948,-154.405 192.92,-278.605 325.472,-392.418 208.716,-178.943 444.911,-279.688 681.8,-415.615 11.727,-6.534 23.455,-14.627 33.148,-24.58 2.034,-1.298 2.683,-4.284 1.342,-6.318 -1.601,-2.25 -4.501,-2.683 -6.535,-1.342 -42.799,26.571 -89.06,44.833 -134.109,69.414 -146.963,80.232 -283.755,147.611 -427.342,243.639 -201.273,134.499 -361.737,287.13 -478.061,493.552 -38.601,69.024 -28.648,146.53 -19.82,221.353 1.818,16.963 12.853,29.557 20.513,44.01 0.736,0.909 1.817,1.515 2.943,0.909 1.081,-0.433 1.557,-1.774 1.081,-2.683 l 0,0 z"
           id="path12299"
           style="fill:#8f5946" />
        <path
           d="m -12679.011,19749.06 c 49.42,-61.321 95.335,-121.516 162.498,-170.417 68.504,-50.026 138.393,-83.391 213.909,-113.814 118.573,-47.559 244.547,-58.811 370.521,-66.038 84.3,-4.673 165.225,-4.673 251.342,-22.719 57.686,-12.16 108.88,-21.854 166.566,-33.365 82.266,-16.228 158.474,-16.445 239.831,-1.601 49.593,9.001 95.335,14.41 144.019,27.263 20.296,5.409 42.15,9.737 62.663,3.159 5.193,-2.25 7.66,-8.136 5.626,-13.329 -2.251,-5.193 -8.136,-7.703 -13.286,-5.409 -16.444,3.375 -32.673,0 -48.901,-3.375 -40.592,-8.353 -76.64,-15.536 -116.972,-22.763 -18.739,-3.376 -36.049,-8.569 -54.311,-10.386 -73.048,-6.924 -143.197,-8.309 -217.5,5.669 -87.46,16.444 -166.783,37.346 -253.333,46.607 -99.836,10.603 -197.205,9.737 -297.257,20.729 -103.903,11.727 -202.874,35.615 -298.425,77.982 -133.634,59.287 -247.231,152.804 -320.496,278.778 l 0,0 c -0.909,1.082 -0.909,2.683 0.433,3.592 1.125,0.909 2.683,0.909 3.592,-0.433 l -0.519,-0.13 z"
           id="path12301"
           style="fill:#8f5946" />
        <path
           d="m -13033.565,20054.02 c 40.116,22.07 86.767,25.23 131.124,25.922 45.093,0.909 89.06,-11.295 132.119,-24.797 89.406,-28.129 148.088,-102.778 230.31,-144.668 106.89,-54.57 225.377,-60.196 339.494,-96.028 115.198,-35.832 203.479,-110.005 295.006,-187.944 61.061,-52.06 107.496,-112.299 159.772,-169.768 1.601,-1.515 1.601,-4.025 0,-5.842 -1.558,-1.601 -4.068,-1.601 -5.626,0 -65.432,47.602 -110.005,113.813 -174.226,166.609 -67.595,55.176 -128.916,110.222 -206.682,148.087 -167.907,81.574 -371.17,58.768 -515.926,193.83 -39.899,37.433 -85.641,64.912 -138.35,79.539 -38.602,10.603 -76.251,20.556 -115.891,23.455 -27.48,2.034 -54.31,0 -81.833,0.909 -16.445,0.476 -32.673,-5.193 -47.343,-13.069 -1.125,-0.736 -2.51,-0.259 -2.943,0.909 -0.562,1.082 -0.13,2.423 0.995,2.856 l 0,0 z"
           id="path12303"
           style="fill:#8f5946" />
        <path
           d="m -11729.209,19436.224 c 0,1.126 0.909,2.034 2.034,2.034 1.341,0 2.25,-0.908 2.25,-2.034 l 0,0 c 0,-1.341 -0.909,-2.25 -2.25,-2.25 -1.125,0 -2.034,0.909 -2.034,2.25 l 0,0 z"
           id="path12305"
           style="fill:#8f5946" />
        <path
           d="m -12079.262,19755.378 c 148.088,-109.789 336.465,-126.666 516.143,-143.11 49.42,-4.501 96.936,-17.137 141.12,-42.194 30.855,-17.526 56.171,-40.592 86.55,-57.209 1.125,-0.736 1.558,-2.078 0.909,-3.159 -0.649,-1.126 -2.034,-1.342 -3.159,-0.736 -159.599,118.314 -366.713,73.265 -549.507,131.902 -73.049,23.196 -139.087,59.028 -194.479,110.871 l 0,0 c -0.909,0.693 -1.341,2.034 -0.736,2.943 0.65,0.909 2.034,1.385 3.159,0.692 l 0,0 z"
           id="path12307"
           style="fill:#8f5946" />
        <path
           d="m -10464.32,21344.831 c -9.737,-35.4 7.659,-66.99 36.307,-87.286 52.277,-37.13 86.334,-82.05 125.715,-129.393 14.93,-18.046 31.547,-33.365 53.618,-40.332 82.266,-25.922 174.009,-13.762 243.639,-71.231 1.341,-0.736 1.817,-2.554 0.908,-3.895 -0.735,-1.298 -2.553,-1.818 -3.592,-0.909 -29.989,17.613 -62.446,32.673 -97.152,36.308 -43.492,4.717 -85.642,2.25 -129.609,12.377 -35.14,8.135 -62.403,28.172 -83.608,56.128 -46.65,61.537 -100.052,104.596 -146.053,166.089 -13.978,18.479 -10.127,41.674 -4.501,62.879 0.216,1.125 1.558,2.034 2.683,1.818 1.082,-0.217 2.034,-1.558 1.818,-2.683 l -0.173,0.13 0,0 z"
           id="path12309"
           style="fill:#8f5946" />
        <path
           d="m -10377.121,21192.026 c 39.683,-27.047 62.403,-77.982 58.768,-124.632 -3.116,-40.16 -31.548,-71.707 -45.959,-108.924 -52.06,-133.633 36.741,-273.585 151.463,-353.428 51.411,-35.832 107.063,-48.165 166.566,-40.116 85.2523,11.728 158.4738,63.788 244.3317,61.061 126.4499,-3.808 245.6729,-65.605 327.9389,-161.589 1.2982,-1.298 1.0819,-3.808 -0.2164,-5.193 -1.6012,-1.298 -3.8082,-1.082 -5.193,0.476 -94.2532,86.983 -215.9429,154.839 -347.3262,145.145 -76.4238,-5.409 -142.8944,-48.468 -219.751,-57.513 -183.703,-21.854 -335.382,151.463 -351.394,323.482 -5.409,57.686 19.387,109.27 49.593,159.988 31.331,52.579 8.569,117.708 -31.374,157.608 l 0,0 c -1.082,0.909 -1.082,2.25 -0.433,3.159 0.779,0.866 2.12,1.168 2.986,0.476 l 0,0 z"
           id="path12311"
           style="fill:#8f5946" />
        <path
           d="m -9881.2314,20608.028 c 70.3221,26.831 132.0757,60.196 197.4212,105.505 22.7627,16.012 47.3862,24.148 74.4332,27.523 43.2751,5.409 84.473,-5.409 127.3154,-1.601 45.7851,4.284 85.252,26.138 129.609,39.25 55.0027,15.969 109.789,1.082 158.4735,-30.638 54.5267,-35.616 86.5503,-89.926 100.7445,-150.381 0.6924,-2.034 -0.2164,-4.068 -2.2503,-4.674 -2.0339,-0.693 -4.1111,0.216 -4.717,2.25 -26.8306,100.528 -130.0417,187.078 -239.8307,165.138 -43.0588,-8.742 -76.8567,-30.163 -120.1318,-38.299 -52.7524,-9.91 -101.1772,6.535 -152.9776,-1.817 -45.9581,-7.443 -81.6601,-31.331 -120.1317,-58.768 -45.5254,-32.456 -96.6766,-41.241 -146.746,-57.469 l 0,0 c -1.1251,-0.519 -2.2935,0.216 -2.683,1.298 -0.3462,1.125 0.1298,2.467 1.4713,2.683 l 0,0 z"
           id="path12313"
           style="fill:#8f5946" />
        <path
           d="m -9400.2283,20753.433 c 27.9557,25.229 67.3793,32.196 94.4263,58.161 105.5047,101.437 96.4602,254.025 66.7302,389.909 -18.2621,82.959 -60.8448,148.997 -119.699,208.933 -38.7745,39.683 -52.2763,94.686 -91.7432,134.109 -65.6484,65.822 -149.8618,101.177 -228.7956,145.145 l 0,0 c -1.1252,0.692 -1.5579,2.034 -0.9088,3.159 0.7357,1.082 2.0339,1.515 3.1591,0.909 91.9596,-51.627 196.772,-82.699 265.0601,-172.668 25.2294,-33.538 42.3664,-68.937 66.0379,-101.87 98.6673,-79.323 134.1096,-206.465 143.1541,-327.722 7.9193,-105.721 -3.8515,-223.127 -95.3351,-294.141 -29.9464,-23.239 -67.4227,-28.648 -99.403,-47.343 -0.9088,-0.736 -2.2503,-0.736 -2.8994,0.216 -0.9521,0.909 -0.6924,2.294 0.2164,3.203 l 0,0 z"
           id="path12315"
           style="fill:#8f5946" />
        <path
           d="m -9228.0366,21182.808 c -4.6737,47.949 -22.9791,93.994 -19.6036,142.679 1.1251,16.444 12.4199,29.773 26.8305,38.774 55.6951,35.01 118.5739,37.433 180.3275,32.976 2.0339,-0.26 3.3754,-1.818 3.1591,-3.895 0,-2.034 -1.8176,-3.332 -3.8083,-3.332 -59.2869,-1.125 -118.7902,-9.001 -171.7589,-40.809 -8.5685,-5.193 -16.2282,-12.852 -18.3054,-23.238 -9.4773,-49.118 4.5006,-94.903 7.703,-142.679 0,-1.125 -0.9088,-2.25 -2.034,-2.466 -1.1684,-0.04 -2.2935,0.865 -2.5099,1.99 l 0,0 z"
           id="path12317"
           style="fill:#8f5946" />
        <path
           d="m -9415.115,21519.532 c 19.1276,-33.538 47.6027,-58.767 81.6169,-78.631 45.7418,-26.571 91.224,-52.492 143.76,-57.469 4.9766,-0.216 9.0012,-4.501 8.7848,-9.477 0,-5.193 -4.2842,-9.002 -9.2176,-9.002 -92.3924,13.675 -186.3859,66.471 -228.7956,152.156 -0.9087,1.341 -0.4327,2.683 0.7357,3.375 1.2983,0.909 2.6831,0.476 3.3755,-0.649 l -0.2597,-0.303 z"
           id="path12319"
           style="fill:#8f5946" />
        <path
           d="m -9790.6132,21034.461 c -2.2503,37.65 -0.4328,80.059 30.4224,105.505 50.026,41.458 99.1866,81.141 164.3156,95.335 44.8763,9.91 87.8918,2.034 130.2581,-9.477 2.0773,-0.476 3.3755,-2.294 2.9428,-4.328 -0.4328,-2.033 -2.4667,-3.159 -4.5007,-2.683 -66.0378,18.955 -137.3119,11.252 -193.4398,-32.456 -7.4433,-5.626 -14.4106,-11.944 -22.3299,-16.012 -54.0939,-26.354 -113.3809,-69.24 -103.2545,-135.97 l 0,0 c 0,-1.298 -1.1251,-2.251 -2.2936,-2.251 -0.9953,0.13 -2.1204,0.996 -2.1204,2.337 l 0,0 z"
           id="path12321"
           style="fill:#8f5946" />
        <path
           d="m -10858.99,21715.136 c 96.634,-13.502 186.386,-50.935 275.403,-93.301 111.088,-52.753 230.094,-72.832 345.509,-113.814 65.605,-23.455 124.416,-58.811 191.146,-80.016 95.5517,-30.422 189.3289,-58.811 267.0943,-126.45 53.8775,-46.65 63.0951,-125.757 25.2294,-183.702 -1.8176,-4.977 -7.6597,-7.703 -12.6364,-5.626 -5.193,1.817 -7.876,7.659 -5.8421,12.852 21.8539,37.65 32.6727,83.868 8.3521,122.815 -72.8753,116.107 -213.0435,128.917 -327.9393,175.351 -75.731,30.639 -144.236,69.889 -225.679,90.142 -96.028,23.672 -185.737,49.117 -273.802,90.142 -87.892,41.025 -172.192,89.45 -267.787,107.496 l 0,0 c -1.125,0 -1.817,1.082 -1.557,2.466 0.04,1.212 1.168,1.904 2.509,1.645 l 0,0 z"
           id="path12323"
           style="fill:#8f5946" />
        <path
           d="m -9778.0202,21287.361 c 20.9452,-21.205 28.3885,-51.411 51.4109,-70.106 22.1136,-18.045 56.7769,-9.91 82.9584,-1.601 4.0678,1.818 9.0012,-0.216 10.6024,-4.284 1.8175,-4.327 -0.2597,-9.001 -4.3275,-10.819 -34.0143,-12.896 -84.5163,-17.829 -105.9375,17.137 -13.7182,22.763 -21.854,46.651 -38.0821,67.163 -0.6924,0.909 -0.6924,2.294 0.5193,2.9 0.8222,0.735 2.207,0.735 2.8561,-0.39 l 0,0 z"
           id="path12325"
           style="fill:#8f5946" />
        <path
           d="m -9752.5311,21234.609 c 13.5018,-16.228 13.7182,-37.866 22.9791,-55.912 l 0.6924,-4.673 -1.2983,3.375 1.5579,-1.817 c 0.6924,-0.736 0.9088,-1.126 1.0819,-1.818 l 3.8082,-5.626 -7.6597,3.592 3.1591,0.909 -0.9088,-0.476 5.6258,2.683 -2.6831,-2.683 2.6831,5.626 -0.476,-3.809 -0.9088,4.977 c -1.1252,4.025 -2.5533,7.876 -3.5919,11.901 l -2.2935,2.683 c -0.9088,1.298 -1.0819,2.683 -1.0819,4.068 l 0.2164,2.942 c 0.2163,2.251 1.5579,4.501 3.8082,5.41 l 0.6924,0.216 c 1.8175,0.909 3.8082,0.692 5.4094,-0.216 l 4.7169,-2.554 c 0.9088,-0.692 1.8176,-1.341 2.2504,-2.466 l 2.5099,-4.068 c 0.4328,-0.736 0.6924,-1.342 0.9088,-2.077 l 0.4327,-2.683 c 0.4761,-1.818 0,-3.376 -0.9087,-4.717 l -0.9088,-1.818 c -1.0819,-1.817 -3.1158,-2.856 -5.193,-2.856 h -7.6597 c -9.4773,0.692 -15.103,9.477 -18.9545,17.137 v 5.842 c 0.2163,2.683 2.4666,4.717 4.8901,5.193 l 4.1111,0.736 c 1.6012,0.216 3.1158,0 4.2842,-0.909 l 4.5006,-3.159 c 2.5533,-2.9 4.717,-6.102 6.751,-9.477 l 3.8514,-7.227 c 0.7357,-1.342 0.9088,-2.683 0.7357,-4.285 l -1.3415,-4.933 c -1.6012,-4.501 -5.193,-7.443 -8.3521,-10.819 l -10.6024,-6.794 c -0.6924,-0.216 -1.0819,-0.433 -1.8176,-0.433 -3.5918,-0.692 -6.924,1.818 -7.6597,5.41 l -0.476,4.5 c 1.1252,6.318 5.193,10.819 9.6936,14.844 l 9.5206,3.418 c 2.0339,0.433 4.2842,0 5.8421,-1.601 l 6.1018,-6.534 c 3.3755,-6.794 1.6012,-14.671 -2.8562,-22.72 l -8.5684,-8.785 c -1.3416,-1.817 -3.5919,-2.683 -5.8422,-2.683 l -1.8175,0.217 c -0.9088,0 -1.8176,0.216 -2.6831,0.735 -3.3754,1.818 -4.5006,5.843 -2.8994,9.002 l 1.0819,1.99 c 8.3521,19.82 26.8305,32.457 47.9921,35.14 3.5918,1.125 7.2269,-0.909 8.1357,-4.285 0.9088,-3.375 -0.9088,-7.01 -4.5006,-8.135 -13.0691,-3.376 -25.7054,-7.876 -36.0482,-18.262 -1.3415,-1.602 -6.9673,1.125 -11.0352,2.25 l 6.3182,-14.887 -5.6258,9.737 h 1.8176 l -4.2842,-1.125 6.3181,5.626 c 0,-0.217 -0.2163,-0.476 -0.2163,-0.693 1.8175,2.251 3.8514,4.501 5.6257,6.751 l -5.6257,7.703 6.1018,-1.601 -8.2656,-3.808 c 3.3755,6.708 -3.5918,5.193 -5.8854,7.443 l 5.4094,-11.944 -10.3428,4.328 8.7849,5.15 c -0.2164,-0.217 -0.7357,-0.476 -0.9088,-0.693 l 6.5345,9.218 0.6924,-4.068 -5.8421,10.602 c 0.2164,-0.216 0.4328,-0.216 0.6924,-0.432 l -5.193,4.933 4.3275,-0.909 -4.0679,-0.736 5.1498,5.193 2.8994,-6.707 0.2164,0.216 10.6024,-1.817 -5.193,-2.943 1.3415,1.817 -0.9088,-4.717 -0.4327,2.9 0.7357,-1.818 -2.2936,4.068 2.2936,-2.25 -4.5007,2.51 5.4094,-0.216 -0.6924,-0.433 3.8082,5.409 -0.2163,-2.943 -1.1252,4.112 5.193,-10.603 c 0,-0.216 0.2164,-0.692 0.2164,-0.909 l 3.1591,-13.501 c 0.2164,-1.342 0,-2.684 -0.7357,-4.068 l -2.8561,-5.41 c -0.7357,-1.125 -1.8176,-2.293 -2.9428,-2.683 l -5.6257,-2.683 c -0.2164,0 -0.6924,-0.216 -0.9088,-0.216 l -2.9427,-1.125 c -2.4667,-0.736 -4.9766,0.216 -6.5346,2.034 l -3.5918,5.625 0,0 -1.6012,1.818 c -0.9087,0.909 -1.2982,2.034 -1.5146,3.375 l -1.6012,6.535 c -5.193,17.526 -5.6257,36.264 -13.7615,53.185 l 0,0 c -0.6924,1.125 -0.2163,2.467 0.9088,2.899 0.6491,0.65 1.9907,0.174 2.6831,-0.735 l 0,0 z"
           id="path12327"
           style="fill:#8f5946" />
        <path
           d="m -10111.801,20095.694 c 79.107,-39.424 168.3833,-50.026 256.2751,-38.601 55.0027,7.227 106.8463,21.421 161.8489,26.83 70.3221,7.011 139.3027,7.227 209.8411,13.502 140.4278,12.636 241.1723,108.404 344.1671,197.594 58.8109,50.719 111.7796,97.586 174.0093,145.405 75.2554,57.685 160.6805,86.983 218.6259,165.181 64.9127,87.459 92.3924,180.327 156.1366,269.561 47.3863,65.821 116.4967,92.652 169.9847,148.044 16.9206,17.613 36.0482,33.581 41.2412,58.421 12.8527,63.095 -8.1357,119.223 -23.7147,177.601 l 0,0 c -0.9088,3.809 1.8608,7.66 5.669,8.309 4.0679,0.693 7.6597,-1.817 8.5252,-5.885 25.7487,-59.244 39.8997,-123.507 29.3405,-188.42 -28.3884,-60.629 -81.8765,-97.369 -138.3938,-135.927 -18.7814,-12.896 -33.3651,-26.355 -48.4681,-42.367 -101.4369,-107.971 -125.9739,-261.252 -236.6717,-357.452 -86.0742,-59.071 -175.6105,-108.621 -254.977,-180.544 -84.2567,-76.64 -161.7625,-144.452 -257.6169,-211.702 -50.502,-35.139 -102.5187,-54.094 -161.7624,-64.004 -76.8566,-12.853 -150.7705,-10.343 -226.978,-16.92 -84.0403,-7.227 -164.7917,-32.933 -249.2647,-27.956 -63.0952,3.808 -126.0173,21.161 -180.1113,55.219 l 0,0 c -1.125,0.692 -1.341,2.034 -0.909,3.116 0.736,1.125 2.034,1.385 3.16,0.909 l 0.04,0.09 0,0 z"
           id="path12329"
           style="fill:#8f5946" />
        <path
           d="m -9855.3096,19758.105 c 13.1124,11.251 25.2294,22.546 38.7746,33.538 48.6845,39.683 106.1538,57.037 151.6793,100.312 55.0027,51.843 99.6193,106.586 159.815,154.146 47.5594,37.433 92.8684,78.025 152.3717,88.368 3.8515,0.735 7.4433,-1.818 8.1357,-5.626 0.6924,-3.852 -1.8175,-7.66 -5.669,-8.309 -132.7248,-50.286 -213.4762,-167.691 -323.8278,-257.184 -42.5827,-34.49 -91.5268,-47.559 -137.788,-76.857 -14.8866,-9.477 -27.7393,-20.512 -40.7218,-31.72 -0.9088,-0.736 -2.2504,-0.736 -3.1591,0.216 -0.7357,0.822 -0.5193,2.207 0.3894,3.116 l 0,0 z"
           id="path12331"
           style="fill:#8f5946" />
        <path
           d="m -9186.579,20377.891 c 66.0378,106.37 195.8632,125.541 305.8253,164.575 36.9569,13.07 70.5384,29.947 103.2544,54.527 56.1278,42.366 83.8672,102.995 122.3821,157.348 1.3415,2.251 4.5006,3.16 6.7509,1.558 2.4667,-1.341 3.1158,-4.5 1.8175,-6.751 -34.7499,-79.106 -84.5163,-153.713 -163.8829,-196.079 -123.5072,-66.211 -285.7889,-56.993 -372.5555,-177.601 l 0,0 c -0.6924,-0.909 -1.8176,-1.342 -2.8562,-0.693 -0.952,0.649 -1.428,2.034 -0.7356,3.116 l 0,0 z"
           id="path12333"
           style="fill:#8f5946" />
        <path
           d="m -8807.7053,21086.348 c 78.2847,73.049 86.1175,188.247 77.073,288.948 13.0691,102.779 110.4381,171.067 202.1814,202.441 1.8175,0.693 3.5918,-0.519 4.2842,-2.293 0.7357,-1.775 -0.2164,-3.592 -2.0339,-4.285 -74.1303,-24.32 -132.7248,-81.357 -171.0666,-149.212 -17.3101,-30.855 -15.4925,-67.163 -11.9007,-103.471 8.5685,-89.233 -27.2633,-176.692 -95.1187,-234.854 -0.9088,-0.909 -2.2503,-1.125 -3.1591,-0.519 -0.952,0.952 -0.952,2.336 -0.2596,3.245 l 0,0 z"
           id="path12335"
           style="fill:#8f5946" />
        <path
           d="m -9075.4485,19832.451 c 7.9193,12.42 20.7288,18.695 33.3651,20.902 218.4096,40.16 401.6364,165.874 509.6079,356.587 26.6142,47.084 46.8669,98.105 45.9581,151.463 -0.6924,34.967 -11.2515,68.938 -16.0117,103.688 l 0,0 c -0.4328,3.115 1.6011,6.318 4.9766,6.707 3.1591,0.736 6.3182,-1.514 6.7509,-4.674 8.3088,-50.934 33.7979,-99.186 20.5124,-153.064 -30.6388,-124.416 -105.2451,-221.785 -200.3638,-303.358 -77.9818,-66.514 -162.4981,-117.709 -258.742,-149.862 -40.592,-13.502 -81.1408,-16.964 -123.9399,-26.138 -6.751,-1.601 -12.6364,-4.76 -18.4785,-8.136 -2.2503,-1.385 -5.193,-0.736 -6.5346,1.515 -1.3415,2.293 -0.6924,5.193 1.5579,6.534 l 1.3416,-2.164 z"
           id="path12337"
           style="fill:#8f5946" />
        <path
           d="m -8510.4052,20262.087 c 11.5544,61.537 65.8214,93.301 116.4966,126.45 99.1866,65.129 150.7273,156.656 219.4915,250.39 74.6495,101.869 122.382,209.624 146.0535,328.415 2.8994,73.221 18.9545,150.554 -7.9193,220.703 -0.4328,1.298 0.2163,2.683 1.6011,3.116 1.3416,0.519 2.6831,-0.217 3.1591,-1.558 68.2882,-177.775 2.6831,-366.714 -101.6965,-525.404 -47.5594,-72.356 -93.5609,-133.2 -146.9624,-199.931 -57.4693,-71.707 -136.1435,-107.279 -203.7392,-166.782 -10.6024,-9.521 -16.4446,-23.455 -22.0704,-36.957 l 0,0 c -0.476,-1.082 -1.8175,-1.818 -2.9427,-1.342 -1.2549,0.39 -1.6877,1.515 -1.4713,2.9 l 0,0 z"
           id="path12339"
           style="fill:#8f5946" />
        <path
           d="m -8380.3635,21059.301 c 4.9767,59.504 64.0039,82.483 99.6194,122.166 29.5569,32.673 42.5827,75.299 57.253,116.54 27.0469,77.03 10.1263,155.747 -5.6258,232.344 -25.013,55.911 -45.5254,110.871 -82.742,164.099 -39.6833,56.777 -91.5269,96.071 -152.3718,119.743 -75.5151,29.513 -159.7717,45.092 -213.0001,111.346 l 0,0 c -0.9088,0.909 -0.9088,2.467 0,3.333 0.9088,1.125 2.5099,1.125 3.5918,0 26.7873,-31.548 60.1957,-56.345 99.403,-68.505 51.5839,-15.752 104.0766,-22.936 152.3717,-45.958 63.0951,-29.773 114.3329,-78.415 147.8711,-141.553 24.3206,-45.742 49.1173,-89.017 62.6624,-139.043 11.5112,-41.458 20.296,-82.439 22.7627,-124.849 4.5006,-81.357 -24.7967,-156.223 -64.6963,-227.411 -18.0458,-32.023 -52.4928,-44.183 -78.4146,-68.504 -17.786,-16.661 -26.5276,-39.424 -44.6166,-55.652 l 0,0 c -0.4328,-1.082 -1.8176,-1.601 -2.8562,-1.082 -1.428,0.26 -1.9041,1.818 -1.2117,2.986 l 0,0 z"
           id="path12341"
           style="fill:#8f5946" />
        <path
           d="m -10454.41,22227.254 c 16.661,-6.535 29.08,-20.037 47.559,-22.547 19.387,-2.466 38.385,-1.082 57.469,-2.856 75.948,-7.01 131.643,-61.537 199.715,-89.493 61.754,-25.446 128.484,-23.455 195.4305,-32.456 94.686,-12.853 177.2116,-56.344 263.7619,-92.652 104.8123,-43.492 215.6399,-62.879 319.3704,-109.53 65.6051,-29.513 120.0885,-74.822 171.0666,-127.142 35.3125,-36.048 61.97,-75.991 98.6673,-110.871 8.3088,-7.876 19.1276,-11.251 29.5569,-13.285 134.326,-24.191 281.0719,-65.649 334.6465,-199.066 13.1124,-32.673 19.1709,-68.028 20.9452,-103.687 0.2164,-1.991 -0.9088,-3.592 -2.9427,-3.808 -1.8176,-0.217 -3.5919,0.909 -3.8082,2.899 -2.4667,47.084 -24.7967,87.459 -49.377,128.008 -65.3454,108.707 -187.5111,131.643 -304.9598,156.18 -23.4551,4.76 -42.3663,17.137 -57.4693,36.308 -68.5045,88.108 -143.5869,162.498 -238.446,215.25 -101.4801,39.467 -207.158,63.831 -309.0709,103.904 -61.1045,23.888 -118.7902,51.843 -180.3275,74.39 -57.4693,20.945 -117.4054,26.83 -178.0339,32.023 -36.74,3.159 -72.572,8.309 -107.712,20.513 -47.386,16.012 -83.867,49.593 -128.916,70.105 -34.058,15.32 -69.89,23.932 -107.279,25.014 -28.605,0.908 -50.978,20.555 -73.049,37.432 l 0,0 c -1.817,1.126 -2.466,3.592 -1.341,5.41 1.125,1.817 3.592,2.467 5.409,1.341 l -0.865,-1.384 z"
           id="path12343"
           style="fill:#8f5946" />
        <path
           d="m -10597.997,22659.096 c 55.219,-82.05 132.768,-141.077 219.751,-192.444 90.142,-53.662 186.429,-38.602 285.096,-19.128 81.661,16.012 159.8154,3.375 238.9223,-8.568 1.6012,-0.217 2.6831,-1.602 2.4667,-3.116 -0.2164,-1.601 -1.5579,-2.683 -3.1591,-2.683 -122.3388,18.954 -244.3309,-5.41 -364.6799,-26.831 -162.281,1.601 -299.334,119.223 -382.032,250.65 l 0,0 c -0.693,0.908 -0.433,2.25 0.735,2.899 0.866,0.563 2.251,0.346 2.9,-0.779 l 0,0 z"
           id="path12345"
           style="fill:#8f5946" />
        <path
           d="m -10331.12,22436.662 c 44.184,-4.76 94.903,-4.068 123.984,-43.492 31.374,-42.582 28.172,-95.551 50.026,-141.552 33.148,-70.323 79.539,-138.351 151.463,-172.582 -0.433,0.433 -0.736,0.693 -1.125,1.082 4.5,-1.298 7.2265,-6.102 5.842,-10.602 -1.082,-4.501 -5.842,-7.227 -10.343,-5.842 -68.288,20.036 -109.097,84.732 -146.27,144.019 -26.355,41.934 -37.173,85.425 -47.17,134.11 -12.117,60.628 -74.39,81.876 -127.142,90.402 -1.125,0.216 -2.034,1.298 -1.818,2.466 0.303,1.299 1.212,1.991 2.553,1.991 l 0,0 z"
           id="path12347"
           style="fill:#8f5946" />
        <path
           d="m -9717.6081,22143.862 c 74.1303,79.324 181.2362,101.654 286.2217,115.415 116.7563,15.32 229.488,2.856 344.3834,1.601 62.446,-0.908 116.1505,30.163 171.283,54.743 4.9766,2.51 10.8187,0.476 13.3287,-4.284 2.51,-4.976 0.6924,-10.819 -4.3275,-13.372 -34.7067,-15.319 -67.163,-34.923 -104.0767,-45.525 -106.3702,-30.206 -212.7838,1.125 -320.0628,-5.41 -65.3455,-3.851 -127.5751,-11.251 -193.6129,-23.455 -70.3221,-13.069 -137.9611,-35.356 -190.4538,-82.958 -0.9088,-0.909 -2.2504,-0.693 -2.9428,0.216 -0.8655,0.996 -0.6491,2.337 0.2597,3.029 l 0,0 z"
           id="path12349"
           style="fill:#8f5946" />
        <path
           d="m -9094.403,22064.972 c 27.2633,107.755 89.2333,216.159 196.9883,257.617 63.0952,24.32 125.5412,44.357 194.0457,55.695 83.3912,13.502 162.9741,4.068 245.4565,13.069 65.3454,7.01 128.7435,23.671 194.0457,15.103 95.7678,-12.853 182.7941,-57.469 247.9232,-130.734 56.3874,-63.528 107.4954,-125.974 141.3798,-203.047 36.7406,-83.651 69.846,-168.384 85.2087,-258.309 0.476,-1.342 -0.4327,-2.943 -1.8175,-3.159 -1.6012,-0.433 -2.9428,0.476 -3.3755,1.817 -15.103,89.45 -58.8109,167.908 -97.1527,249.741 -36.0481,77.03 -85.4251,141.726 -144.0196,203.739 -68.0285,72.356 -161.8057,121.257 -259.6507,121.257 -70.5385,0 -140.1682,-17.137 -210.7499,-20.08 -64.653,-2.51 -127.7482,0.217 -193.1369,-9.217 -66.2109,-9.737 -126.0171,-31.375 -187.9871,-53.012 -38.9909,-13.502 -71.2309,-39.164 -99.6193,-69.803 -38.7746,-41.761 -64.4367,-88.368 -93.7772,-137.528 -6.3182,-10.3 -6.1451,-22.72 -9.7369,-34.274 l 0,0 c -0.2164,-1.082 -1.2983,-1.818 -2.4667,-1.601 -1.3416,0.259 -1.9907,1.601 -1.5579,2.726 l 0,0 z"
           id="path12351"
           style="fill:#8f5946" />
        <path
           d="m -7958.6474,21770.398 c 0.7357,43.016 21.4212,79.799 35.6155,119.915 15.3193,43.708 20.296,89.926 17.8293,136.144 -2.2503,39.164 -18.0457,75.472 -24.5803,113.814 -0.4327,4.284 2.51,8.265 6.751,8.784 4.2842,0.433 8.3521,-2.553 8.7848,-6.75 1.3415,-14.627 9.2176,-27.047 13.7182,-40.809 30.2061,-93.777 16.9639,-194.738 -40.9815,-280.855 -9.91,-14.627 -11.7276,-32.89 -12.6364,-50.719 l 0,0 c -0.2596,-1.298 -1.3415,-2.034 -2.5099,-2.034 -1.0819,0.217 -1.9907,1.342 -1.9907,2.51 l 0,0 z"
           id="path12353"
           style="fill:#8f5946" />
        <path
           d="m -8261.1405,21618.243 c -34.7066,64.004 -99.6193,129.825 -66.9466,207.807 15.5358,37.433 46.6506,63.831 65.129,99.663 36.7839,70.754 38.6015,154.578 10.8188,227.886 -0.476,1.342 0.2164,2.943 1.5579,3.376 1.3416,0.433 2.6831,-0.217 3.1591,-1.558 26.5709,-71.707 41.2412,-153.497 7.227,-226.069 -18.0458,-38.385 -48.9009,-66.731 -67.5958,-104.12 -35.8318,-72.356 18.6949,-141.337 50.2424,-204.648 0.7357,-1.082 0.2597,-2.467 -0.6924,-2.857 -1.0818,-0.822 -2.4234,-0.389 -2.8994,0.52 l 0,0 z"
           id="path12355"
           style="fill:#8f5946" />
        <path
           d="m -8527.7585,21841.369 c 57.2529,-14.886 114.7223,-40.116 176.4759,-28.388 11.9439,2.25 22.1569,8.568 28.8645,18.738 25.4458,38.082 47.7758,73.048 74.8227,107.279 1.1252,1.558 3.5919,1.991 5.193,0.649 1.8176,-1.082 2.034,-3.332 0.9088,-5.15 -37.8657,-44.833 -40.5921,-122.382 -104.8123,-139.086 -51.4109,-13.285 -99.1866,13.113 -147.3951,29.99 -11.7276,4.024 -22.7195,10.126 -35.3558,11.944 l 0,0 c -1.1252,0.216 -1.5579,1.601 -1.3415,2.683 0.3894,1.125 1.5146,1.817 2.6398,1.341 l 0,0 z"
           id="path12357"
           style="fill:#8f5946" />
        <path
           d="m -10112.061,22656.37 c 81.141,-40.116 172.6679,-58.119 263.5024,-46.175 96.4602,12.637 185.0444,47.386 281.2883,55.912 156.6559,13.761 309.8931,11.035 466.7655,29.081 209.6247,23.931 411.33,66.513 608.3617,135.494 160.9402,31.548 313.7446,105.894 478.7094,109.486 52.4927,1.342 105.5048,-7.227 154.146,-30.639 68.5045,-33.149 116.4966,-89.406 156.656,-155.055 24.5802,-40.116 39.4669,-82.698 47.9921,-127.791 0.9088,-4.674 -2.2936,-9.218 -7.0106,-10.083 -4.9334,-0.909 -9.4772,2.25 -10.3427,7.01 -27.9558,112.689 -96.0275,221.309 -204.2154,270.47 -87.2859,39.467 -182.1017,31.98 -274.9701,7.66 -72.356,-18.695 -137.7015,-41.241 -210.7499,-58.595 -164.0992,-39.164 -307.2101,-98.667 -473.3433,-126.233 -90.6181,-14.887 -174.7017,-34.707 -264.6274,-43.275 -68.9805,-6.492 -136.5763,-9.002 -205.3404,-13.719 -106.5867,-6.967 -209.8411,-2.25 -318.2453,-22.07 -79.1069,-14.194 -151.0302,-37.649 -229.2283,-43.751 -90.4018,-7.443 -180.111,19.387 -261.252,58.421 -1.125,0.693 -1.601,1.991 -1.125,2.856 0.822,0.996 2.164,1.472 3.029,0.996 l 0,0 z"
           id="path12359"
           style="fill:#8f5946" />
        <path
           d="m -8432.4234,22690.427 c 53.8775,18.262 108.7071,38.558 166.6092,34.058 49.9828,-4.111 99.8357,-5.41 146.7459,-26.831 65.1291,-29.946 114.7224,-75.255 174.4421,-118.098 24.1042,-17.31 38.0821,-41.674 58.1617,-61.753 1.3416,-1.385 1.3416,-3.852 0,-5.193 -1.6011,-1.342 -3.8082,-1.342 -5.193,0 -22.9358,20.036 -38.9476,45.828 -65.9945,62.662 -53.8776,33.582 -100.0521,68.981 -155.5741,96.936 -26.1382,13.329 -52.9688,22.071 -82.2228,26.139 -79.7993,11.294 -160.2477,15.319 -235.5465,-12.161 -1.0818,-0.216 -2.2503,0.26 -2.683,1.342 -0.5626,1.082 0.1298,2.467 1.255,2.899 l 0,0 z"
           id="path12361"
           style="fill:#8f5946" />
        <path
           d="m -9506.2091,22997.421 c 59.5033,-29.773 113.8136,-65.605 182.5777,-79.54 45.5255,-9.261 85.8579,-21.421 130.7342,-27.263 90.1421,-11.554 178.9426,-20.556 260.949,-58.811 1.6012,-0.433 2.5099,-2.25 1.8175,-4.068 -0.4327,-1.558 -2.4666,-2.466 -4.0678,-1.817 -89.7094,36.957 -184.8281,27.955 -281.7211,48.684 -55.219,11.944 -105.2451,25.23 -156.4396,45.093 -49.1172,18.695 -89.0169,51.627 -135.6675,73.914 l 0,0 c -1.1251,0.433 -1.6012,1.817 -1.1251,2.943 0.7356,1.081 2.0772,1.514 2.9427,0.865 l 0,0 z"
           id="path12363"
           style="fill:#8f5946" />
        <path
           d="m -11291.741,22799.307 c 78.847,-15.319 164.099,-5.409 238.013,27.48 68.981,30.942 128.701,75.732 197.854,106.37 105.938,46.867 218.929,72.14 334.301,61.797 132.724,-11.944 259.65,-44.4 378.441,-109.096 90.834,-49.594 182.7937,-83.867 276.3545,-124.2 96.893,-41.717 196.5557,-52.969 301.5844,-71.014 79.3233,-13.762 155.0548,-6.535 232.3874,-17.57 2.4667,0 4.2842,-2.034 4.2842,-4.284 0,-2.251 -1.8175,-4.328 -4.2842,-4.328 -59.5033,-6.491 -119.223,-4.674 -178.7263,0 -74.6063,5.929 -145.1447,18.522 -220.4434,35.01 -119.4827,26.311 -222.5207,76.164 -330.8816,122.165 -194.522,110.871 -417.605,190.627 -650.468,138.567 -72.14,-15.968 -134.326,-43.707 -198.33,-77.765 -63.312,-33.755 -116.713,-77.765 -189.545,-93.258 -65.346,-14.194 -128.917,-10.819 -191.363,5.842 l 0,0 c -1.342,0.476 -2.034,1.601 -1.558,2.683 0.13,1.125 1.255,1.818 2.38,1.601 l 0,0 z"
           id="path12365"
           style="fill:#8f5946" />
        <path
           d="m -11591.032,23108.552 c 205.341,79.799 407.263,-48.252 592.35,-124.416 61.062,-13.978 123.334,-17.137 185.737,-11.555 56.604,4.977 110.698,17.57 167.259,23.672 59.936,6.534 119.223,-1.558 178.033,-12.853 1.818,0 3.376,-1.818 3.116,-3.852 -0.216,-1.817 -1.817,-3.375 -3.851,-3.159 -57.686,7.227 -114.679,11.079 -173.317,2.078 -58.378,-8.785 -113.381,-22.114 -171.067,-26.355 -88.584,-6.318 -178.986,-3.592 -260.126,40.332 -86.983,47.387 -173.101,80.925 -268.436,106.63 -81.357,21.638 -168.124,32.716 -247.707,5.669 -1.125,-0.735 -2.553,-0.259 -2.943,0.909 -0.649,1.082 -0.216,2.424 0.952,2.9 l 0,0 z"
           id="path12367"
           style="fill:#8f5946" />
        <path
           d="m -10278.367,23341.588 c 139.735,-38.558 275.879,-79.323 417.4317,-120.824 85.8578,-25.229 170.8502,-35.139 257.184,-59.936 63.5712,-18.262 122.3821,-40.809 174.9181,-82.266 65.9946,-52.276 121.6897,-102.779 193.3965,-147.655 59.287,-36.74 122.5985,-51.151 187.7275,-65.345 2.2503,-0.433 3.8515,-2.943 3.1591,-5.193 -0.476,-2.251 -2.683,-3.592 -4.9766,-3.159 -67.163,15.146 -137.4851,16.747 -198.806,59.287 -34.4902,23.887 -68.5045,39.899 -98.4941,67.595 -30.2061,27.956 -59.0706,52.277 -92.6521,77.03 -129.133,95.335 -281.5047,105.072 -427.8179,138.394 -137.7442,45.525 -278.1722,82.266 -412.0222,137.961 -1.125,0.216 -1.818,1.298 -1.601,2.51 0.303,1.168 1.428,1.817 2.553,1.601 l 0,0 z"
           id="path12369"
           style="fill:#8f5946" />
        <path
           d="m -11543.732,22353.444 c 45.093,-19.128 87.243,-38.991 137.485,-49.334 40.419,-8.352 77.766,-1.817 116.757,-0.735 61.753,1.817 112.255,-46.132 122.814,-106.847 8.352,-47.775 3.809,-94.21 -9.477,-139.519 l 0,0 c -0.476,-1.817 -2.294,-3.159 -4.111,-2.683 -1.818,0.433 -2.899,2.034 -2.683,4.068 15.536,71.058 13.502,157.781 -50.026,207.115 -41.674,32.456 -93.301,11.035 -140.644,14.41 -64.004,4.717 -118.098,38.775 -171.976,69.241 -1.341,0.432 -1.817,2.034 -1.341,3.115 0.476,1.342 2.034,1.818 3.159,1.342 v -0.173 z"
           id="path12371"
           style="fill:#8f5946" />
        <path
           d="m -11239.681,22277.063 c 19.82,67.163 72.616,123.681 144.02,132.682 110.222,13.978 209.365,-36.741 306.301,-81.833 9.521,-4.328 19.387,-6.319 29.557,-8.569 100.269,-22.114 199.888,-6.534 289.424,-63.355 81.877,-52.276 118.574,-141.293 151.247,-227.41 41.457,-109.097 163.623,-142.895 267.526,-159.123 3.376,-0.26 5.886,-3.376 5.41,-6.535 -0.433,-3.375 -3.332,-5.842 -6.708,-5.409 -67.422,6.967 -132.984,20.296 -194.045,54.527 -69.63,39.207 -91.051,115.198 -122.166,182.101 -25.922,56.345 -57.686,112.905 -113.381,146.79 -27.48,16.66 -55.608,26.138 -87.243,31.72 -69.629,12.42 -135.927,10.603 -202.614,30.206 -77.549,22.763 -141.553,66.73 -223.386,82.05 -34.966,6.534 -67.596,9.91 -102.778,4.501 -67.596,-10.387 -97.802,-69.89 -134.326,-117.882 l 0,0 c -2.251,-2.943 -6.492,-3.375 -9.218,-1.125 -2.899,2.25 -3.375,6.534 -1.082,9.261 l 3.462,-2.597 z"
           id="path12373"
           style="fill:#8f5946" />
        <path
           d="m -11183.553,23464.187 c 58.378,-10.127 118.271,-11.252 177.774,-6.319 114.03,9.521 226.286,7.011 341.008,-7.876 110.871,-14.41 212.524,-45.742 320.063,-75.948 128.268,-36.048 241.389,-93.517 374.5895,-113.813 123.0745,-18.955 239.5711,-12.636 362.1696,-31.072 148.3471,-22.373 287.4333,-56.647 424.4424,-112.299 161.849,-65.821 324.7798,-120.088 485.244,-185.736 155.7471,-47.084 323.871,-71.404 483.2533,-26.831 98.2778,4.501 196.0796,38.991 294.141,21.638 1.3415,0 2.2503,-1.299 2.2503,-2.9 -0.2164,-1.341 -1.5579,-2.25 -2.8561,-2.25 -75.7315,10.083 -147.6548,-12.42 -223.819,-25.749 -67.5957,-11.727 -130.085,-28.129 -196.5556,-33.365 -124.1996,-9.477 -246.5817,10.386 -363.338,52.752 -160.2477,58.378 -316.6873,114.723 -474.4684,179.635 -116.9727,47.949 -232.8202,77.766 -360.6116,102.562 -215.0341,42.15 -423.7501,14.411 -625.9314,93.258 -181.236,70.539 -367.622,123.508 -559.677,147.655 -104.337,0.216 -208.024,9.477 -313.269,-2.034 -50.026,-5.193 -98.71,7.227 -145.361,24.104 -1.342,0.26 -2.25,1.602 -2.034,2.943 0.216,1.342 1.601,2.25 2.943,2.034 l 0.04,-0.389 0,0 z"
           id="path12375"
           style="fill:#8f5946" />
        <path
           d="m -10464.537,23399.274 c 43.751,-8.136 91.267,-31.331 133.201,-8.352 74.65,40.808 148.088,79.323 232.387,86.766 97.37,8.569 193.397,11.944 290.7661,16.229 70.7981,3.159 140.2114,14.41 211.7019,22.373 50.502,5.626 100.0521,4.673 149.8617,4.284 97.1527,-0.433 192.9205,-23.888 283.5386,-61.061 64.6964,-26.571 121.9493,-59.504 182.1018,-101.87 99.8357,-70.755 191.7953,-133.201 303.3586,-172.884 93.7772,-33.581 183.4865,-67.596 280.5959,-94.686 64.4799,-17.743 129.133,-22.33 191.3626,-44.573 30.4224,-11.035 11.2515,-45.309 1.3415,-65.389 -0.2163,-1.298 -1.6011,-2.034 -2.9427,-1.818 -1.3415,0.52 -2.0339,1.818 -1.8175,2.943 5.8421,18.695 21.8539,47.343 -3.3755,57.037 -48.6845,18.695 -99.1866,19.82 -151.6793,30.855 -112.6884,23.671 -212.3078,57.902 -317.3365,95.551 -149.905,53.878 -266.4017,153.93 -405.2715,235.763 -90.1421,53.185 -184.3521,77.03 -286.9141,94.427 -72.7888,12.42 -141.9424,5.409 -213.4329,2.51 -73.9139,-3.376 -146.9624,-14.671 -221.0926,-20.297 -54.0939,-4.067 -107.7118,-3.159 -161.8057,-6.75 -60.8444,-3.852 -119.9154,-3.116 -181.6694,-16.921 -70.538,-15.795 -125.151,-56.128 -191.579,-77.765 -40.765,-13.372 -81.616,10.386 -121.906,19.603 l 0,0 c -1.125,0 -2.034,1.082 -1.817,2.251 0.173,1.341 1.255,2.033 2.423,1.774 l 0,0 z"
           id="path12377"
           style="fill:#8f5946" />
        <path
           d="m -10547.279,23420.911 c 59.287,-9.693 116.54,-33.365 176.693,-33.797 11.727,0 20.079,13.328 24.32,25.013 6.102,16.66 4.934,34.923 13.718,50.934 14.151,25.489 33.539,44.877 57.686,61.538 98.451,68.071 190.021,113.38 288.2557,181.885 90.8778,63.355 167.4748,119.915 259.9104,178.51 115.1551,73.048 240.0471,93.777 369.1368,101.48 117.7084,6.924 235.9793,4.89 350.5285,-31.374 34.4903,-10.819 59.7197,-35.616 91.0509,-52.06 63.0951,-33.149 127.7915,-62.62 172.6678,-118.531 57.2529,-20.08 107.0626,-63.095 120.6077,-123.724 17.3101,-17.353 39.6833,-27.739 57.253,-45.309 20.7288,-20.296 23.1955,-48.684 33.3651,-73.914 54.7864,-18.478 94.686,-62.402 123.94,-110.697 61.5372,-51.801 109.0966,-114.506 165.4408,-174.01 39.6833,-41.674 57.9021,-96.46 63.5712,-152.804 6.1018,-64.004 -17.3534,-125.498 -41.2412,-184.612 -38.5582,-53.401 -109.313,-57.686 -169.2923,-65.821 l 0,0 c -1.6012,0 -2.9427,1.125 -2.9427,2.683 0,1.558 1.1251,2.856 2.683,2.856 45.3091,8.785 85.2087,33.365 129.3927,45.569 47.7757,50.935 57.4693,128.008 63.0951,195.43 -8.1357,51.627 -24.7967,101.87 -59.0706,142.678 -37.6493,44.184 -75.7314,82.266 -115.6311,124.2 -34.9663,36.481 -64.2203,71.88 -97.1527,110.438 -11.9439,13.761 -25.7054,25.749 -42.5827,32.976 -13.9346,5.842 -28.8645,10.559 -37.3897,23.152 -14.9299,22.546 -11.7275,50.978 -32.4563,69.413 -15.5358,14.411 -32.9324,24.148 -49.8097,37.433 -4.717,3.592 -8.5685,8.136 -9.91,13.935 -13.0691,58.854 -59.936,93.301 -111.52,112.948 -48.6845,56.993 -114.9387,87.892 -181.2362,122.815 -11.2516,5.842 -21.4212,14.627 -32.6727,21.421 -118.0979,71.014 -256.059,59.503 -385.1919,54.31 -126.6663,-4.977 -249.7408,-27.047 -363.338,-97.369 -105.9375,-65.605 -191.8819,-135.018 -296.8239,-203.523 -87.632,-57.21 -168.384,-99.186 -254.458,-159.772 -20.945,-14.627 -39.467,-31.374 -48.468,-54.31 -9.91,-25.229 -9.694,-55.911 -32.932,-75.299 -19.604,-16.228 -43.492,-9.217 -65.605,-3.808 -47.387,11.728 -89.45,30.639 -134.759,45.093 -1.125,0.216 -1.818,1.298 -1.601,2.466 0.519,1.342 1.644,2.034 2.769,1.558 l 0,0 z"
           id="path12379"
           style="fill:#8f5946" />
        <path
           d="m -9587.35,23505.211 c 25.9218,10.343 53.8776,13.069 80.9245,9.694 63.0951,-7.876 123.6803,-22.546 186.7754,-17.353 47.7758,18.305 91.9597,43.275 139.3459,63.614 40.1161,17.31 80.4052,24.321 124.1564,32.889 77.8087,15.32 150.1647,22.763 227.454,12.16 14.4107,-1.817 28.6049,0.433 43.0155,-1.125 79.583,-9.477 156.656,-21.854 230.0939,-54.31 44.8763,-20.08 77.7653,-57.037 115.6311,-86.767 0.9088,-0.908 0.9088,-2.25 0,-3.159 -0.6924,-0.908 -2.2503,-1.125 -3.1591,-0.216 -120.8241,107.063 -287.996,123.507 -441.7525,130.734 -139.7354,6.535 -275.6192,-29.514 -400.9873,-97.369 -10.3427,-5.626 -21.4212,-6.967 -32.4563,-8.742 -92.6521,-14.41 -178.2935,43.276 -267.3105,16.229 -1.1251,-0.736 -2.2503,0 -2.9427,0.908 -0.3462,1.039 0.087,2.381 1.2117,2.813 l 0,0 z"
           id="path12381"
           style="fill:#8f5946" />
        <path
           d="m -10263.264,23366.817 c 277.0039,21.205 552.4501,65.346 831.2284,54.311 119.9154,-4.761 237.5372,-17.613 355.4186,-51.195 102.7785,-29.557 191.579,-80.924 281.7211,-132.335 1.3415,-0.692 1.8176,-2.51 1.1252,-3.852 -0.6924,-1.341 -2.2503,-1.817 -3.5919,-1.081 -91.2672,47.343 -182.5777,91.7 -282.6298,121.906 -117.8815,35.615 -236.888,46.867 -357.4525,52.06 -92.4357,4.067 -183.9193,4.5 -276.5714,-2.467 -183.9193,-14.238 -365.8047,-27.566 -548.6417,-41.458 -1.082,-0.216 -2.251,0.433 -2.467,1.818 -0.173,1.168 0.736,2.293 1.861,2.293 l 0,0 z"
           id="path12383"
           style="fill:#8f5946" />
        <path
           d="m -10174.94,23352.623 c 186.6027,2.467 373.2483,1.558 559.8939,2.467 79.107,0.519 156.4396,-4.284 236.715,-16.445 159.5986,-24.32 311.9271,-47.559 464.4719,-87.848 132.5084,-48.944 271.2052,-78.415 402.978,-129.393 1.3415,-0.735 2.0339,-2.25 1.3415,-3.592 -0.476,-1.601 -2.2936,-2.034 -3.5919,-1.601 -143.1973,43.275 -288.2988,77.333 -429.6354,126.45 -143.76,34.923 -286.9141,61.061 -435.8671,80.449 -127.1423,16.444 -251.3852,25.013 -378.2245,19.084 -139.5623,-6.318 -278.6054,7.963 -418.1244,5.929 -1.341,0 -2.25,1.082 -2.25,2.25 0,1.082 0.952,2.25 2.293,2.25 l 0,0 z"
           id="path12385"
           style="fill:#8f5946" />
        <path
           d="m -10074.844,23318.609 c 16.92,-6.318 34.706,-6.102 52.016,-6.751 139.9522,-6.491 278.6057,-7.443 418.8171,-17.31 181.2362,-12.636 353.2116,-41.674 534.1881,-84.949 174.4421,-41.977 332.0068,-98.494 498.0967,-156.44 117.1891,-40.592 239.8308,-53.877 362.9052,-51.843 4.3275,0 7.9194,-3.592 7.9194,-7.876 0,-4.328 -3.5919,-7.92 -7.9194,-7.92 -120.6077,-1.298 -240.6962,16.964 -357.4958,47.127 -169.9414,65.605 -337.1998,121.69 -519.9939,164.532 -175.9999,41.458 -341.9167,68.981 -518.0032,84.733 -158.387,14.237 -315.5622,12.852 -471.9152,32.456 -1.125,0.476 -1.558,1.818 -1.342,2.899 0.476,1.126 1.602,1.558 2.727,1.342 l 0,0 z"
           id="path12387"
           style="fill:#8f5946" />
        <path
           d="m -9644.1269,23228.424 c 135.9704,-20.902 271.3783,-30.639 409.8154,-46.867 136.8359,-16.012 263.2426,-57.47 389.6925,-107.972 133.2008,-53.358 263.7186,-96.46 408.4306,-120.824 69.0238,-11.511 134.326,-16.444 203.3066,-0.433 5.193,1.125 11.7275,3.376 13.5018,10.343 2.6831,3.419 7.703,3.852 11.0784,1.082 3.3322,-2.683 3.8082,-7.66 0.9088,-11.035 -6.7509,-15.709 -24.5803,-19.344 -39.6833,-21.421 -145.8372,-20.296 -282.6298,18.305 -420.1149,60.412 -117.4487,35.831 -224.295,86.117 -341.2676,123.074 -209.3651,65.822 -425.308,68.072 -636.9666,109.313 l 0,0 c -1.1252,0.433 -1.8176,1.601 -1.3415,2.683 0.1731,1.212 1.2982,1.861 2.6398,1.645 l 0,0 z"
           id="path12389"
           style="fill:#8f5946" />
        <path
           d="m -9319.0875,23495.301 c 23.8879,-3.592 47.0834,-11.727 71.6204,-10.602 112.9048,46.651 236.7149,44.876 356.5437,41.977 64.2203,-1.601 127.5751,-5.41 192.2714,-13.762 101.6533,-13.069 209.6247,-20.079 294.141,-80.448 2.4667,-2.51 2.4667,-6.491 0,-9.261 -2.5099,-2.467 -6.5345,-2.683 -9.2176,-0.216 -148.6068,76.64 -320.2792,71.014 -482.3445,88.584 -118.7903,0.216 -235.9793,-2.034 -354.5099,-33.538 -23.1954,-6.319 -45.785,9.217 -69.4133,13.069 -1.3415,0.476 -2.0339,1.601 -1.6011,2.683 0.2163,1.038 1.3415,1.731 2.5099,1.514 l 0,0 z"
           id="path12391"
           style="fill:#8f5946" />
        <path
           d="m -9230.9793,23478.597 c 29.3405,-10.819 58.8109,-26.138 90.1421,-20.253 146.3132,26.831 283.3655,20.037 426.6494,2.467 148.3039,-17.829 300.892,-47.559 420.1149,-139.952 2.8995,-2.25 3.1591,-6.491 0.6924,-9.477 -2.2503,-2.683 -6.4912,-2.899 -9.2608,-0.692 -120.8242,83.997 -266.1421,117.881 -411.8061,135.018 -143.3272,16.921 -281.7211,25.229 -426.8659,3.592 -32.2399,-4.977 -60.5851,15.492 -91.0508,25.229 l 0,0 c -1.1252,0.217 -1.5579,1.558 -1.3416,2.683 0.4761,1.169 1.6012,1.861 2.7264,1.385 l 0,0 z"
           id="path12393"
           style="fill:#8f5946" />
        <path
           d="m -9113.5306,23430.172 c 19.82,-11.727 39.8996,-24.796 62.6191,-26.614 68.7209,-4.674 136.3599,10.602 205.5568,4.328 43.0588,-4.112 84.3,-10.386 128.0078,-16.964 62.4028,-9.002 121.3002,-19.344 181.0199,-38.082 103.8603,-32.457 211.1826,-56.345 299.9831,-119.44 2.2504,-2.034 2.5533,-5.409 0.4761,-7.659 -1.8176,-2.294 -5.1498,-2.554 -7.4433,-0.52 -124.8921,63.615 -254.025,106.154 -396.9195,135.235 -71.9233,14.714 -138.1342,24.321 -208.9323,30.942 -63.7875,6.318 -127.1423,-0.52 -190.9298,2.683 -28.3453,1.341 -51.1512,20.036 -75.7315,32.24 -1.0819,0.692 -1.2983,2.034 -0.9088,2.942 0.6924,1.126 2.0339,1.558 3.2024,0.909 l 0,0 z"
           id="path12395"
           style="fill:#8f5946" />
        <path
           d="m -9017.5464,23379.454 c 52.9687,-45.526 124.8487,-41.674 191.1462,-50.719 68.5045,-9.477 132.2921,-22.762 198.5463,-41.933 141.5529,-41.458 277.4801,-88.368 422.1488,-102.562 3.8082,0 6.751,-3.159 6.751,-7.011 0,-3.851 -3.1591,-7.01 -7.0106,-7.01 -146.0536,9.91 -282.6299,58.854 -424.6155,100.311 -40.3325,11.901 -78.5877,21.638 -120.0885,31.548 -93.0848,22.546 -193.6562,12.636 -269.3877,73.914 -1.0818,0.692 -1.0818,2.034 -0.4327,2.943 0.6924,1.168 2.0339,1.168 2.9427,0.519 l 0,0 z"
           id="path12397"
           style="fill:#8f5946" />
        <path
           d="m -8934.8044,23321.984 c 130.7342,-68.071 273.845,-98.277 416.9991,-140.211 106.8463,-31.331 211.875,-54.786 320.4956,-68.937 4.2842,0 7.6597,-3.419 7.6597,-7.66 0,-4.327 -3.3755,-7.66 -7.6597,-7.66 -110.741,13.502 -217.9768,37.606 -326.1646,70.322 -142.4617,43.276 -284.231,79.583 -413.364,150.338 l 0,0 c -1.1252,0.433 -1.5579,1.818 -0.9088,2.943 0.4328,1.082 1.8176,1.515 2.9427,0.865 l 0,0 z"
           id="path12399"
           style="fill:#8f5946" />
        <path
           d="m -9938.7007,23485.824 c 54.5266,7.876 108.8802,6.751 163.4069,21.638 81.1408,21.854 154.8383,45.309 238.2295,63.095 100.4849,21.637 196.0363,23.671 295.2229,28.432 63.0952,2.856 126.4932,1.817 189.1123,-7.703 3.5918,0 6.5346,-2.9 6.3182,-6.708 0,-3.592 -2.8995,-6.535 -6.7509,-6.318 -160.2478,10.602 -316.6009,6.318 -479.6182,-23.239 -78.6742,-14.411 -149.2127,-34.49 -226.0693,-54.786 -59.936,-16.012 -119.223,-12.377 -179.2456,-18.479 -1.0818,-0.216 -2.2503,0.433 -2.4667,1.601 -0.1731,1.342 0.7357,2.467 1.8609,2.467 l 0,0 z"
           id="path12401"
           style="fill:#8f5946" />
        <path
           d="m -10231.933,23468.947 c 39.207,33.365 91.051,39.38 141.12,50.935 142.2456,32.456 268.8686,63.571 412.9315,92.868 79.3233,16.228 150.9869,29.341 229.8774,41.674 150.3378,23.239 295.2662,19.387 443.1373,28.172 158.9063,-10.126 327.4629,-31.548 457.5479,-132.076 1.0819,-0.908 1.0819,-2.51 0.2164,-3.375 -0.9088,-1.125 -2.2936,-1.125 -3.3755,-0.216 -133.2008,88.367 -297.7328,108.663 -453.6964,119.915 -126.2335,-8.785 -251.2986,-3.116 -378.8737,-17.31 -146.746,-16.445 -282.1971,-45.569 -429.8086,-78.025 -97.5854,-21.378 -184.352,-38.948 -282.4133,-59.503 -47.776,-9.91 -96.46,-14.411 -133.677,-46.391 l 0,0 c -0.909,-0.736 -2.467,-0.736 -3.159,0.216 -0.736,0.822 -0.736,2.207 0.173,3.116 l 0,0 z"
           id="path12403"
           style="fill:#8f5946" />
        <path
           d="m -10157.803,23541.303 c 128.268,49.766 258.7423,72.789 398.0449,102.562 135.9705,29.081 259.6508,58.594 393.9768,72.139 152.1553,15.493 299.9831,27.48 453.2636,7.444 130.7342,-16.964 258.3092,-53.185 357.9286,-139.562 1.0819,-1.082 1.2982,-2.684 0.4327,-4.068 -1.1251,-1.126 -2.8994,-1.342 -4.0678,-0.217 -132.5085,97.586 -298.2522,127.143 -458.5,136.144 -145.5342,8.136 -287.6065,-3.852 -434.3091,-25.922 -166.9555,-25.013 -318.6781,-59.287 -487.0616,-92.176 -76.8131,-14.843 -147.8711,-31.331 -217.9771,-60.152 -1.082,-0.736 -2.466,0 -2.856,1.081 -0.433,0.909 0,2.251 1.125,2.727 l 0,0 z"
           id="path12405"
           style="fill:#8f5946" />
        <path
           d="m -9954.4961,23658.275 c 233.3394,74.39 476.0263,99.187 721.0501,122.599 80.9245,7.66 160.2478,5.409 241.1723,-1.601 109.789,-9.737 217.5007,-26.355 320.4955,-67.856 18.0458,-7.227 33.3652,-19.171 48.2085,-31.547 3.1591,-1.601 4.5006,-5.669 2.6831,-8.785 -1.6012,-3.159 -5.6258,-4.501 -8.7849,-2.683 -126.2335,70.755 -272.9362,89.926 -415.3979,98.105 -101.1772,5.625 -200.1474,4.5 -302.4498,-10.386 -206.682,-30.207 -409.9886,-35.616 -605.1594,-101.87 -1.0819,-0.433 -2.2503,0 -2.8994,1.125 -0.476,1.082 -0.043,2.207 1.0819,2.899 l 0,0 z"
           id="path12407"
           style="fill:#8f5946" />
        <path
           d="m -9781.3956,23768.497 c 54.6132,25.23 112.2989,38.775 172.6677,47.56 137.7015,20.036 269.7771,45.958 406.6131,41.89 169.9414,-4.89 346.8934,-14.627 502.8137,-89.666 4.7169,-2.51 6.5345,-8.352 4.1111,-12.896 -2.51,-4.674 -8.3521,-6.491 -13.1124,-4.068 -171.7589,75.039 -363.3379,92.695 -548.8151,91.051 -113.8136,-1.125 -224.5113,-17.613 -339.4501,-33.192 -63.3115,-8.525 -125.3247,-17.527 -183.0105,-44.574 l 0,0 c -1.0819,-0.735 -2.2503,0 -2.8994,0.909 -0.476,1.169 -0.043,2.51 1.0819,2.986 l 0,0 z"
           id="path12409"
           style="fill:#8f5946" />
        <path
           d="m -9659.6627,23851.629 c 141.726,33.798 285.962,66.254 432.5349,60.195 85.4251,-3.375 169.5086,-12.42 255.3232,-21.421 64.6963,-6.707 123.3341,-29.297 174.9181,-67.379 2.0339,-1.125 2.683,-3.592 1.6011,-5.626 -1.0818,-1.817 -3.5918,-2.51 -5.6257,-1.341 -131.3833,73.048 -287.6065,61.061 -432.0589,81.79 -143.3272,1.341 -285.962,-20.296 -425.7407,-50.503 l 0,0 c -1.0818,-0.216 -2.2503,0.52 -2.683,1.602 -0.3029,1.125 0.6058,2.466 1.731,2.683 l 0,0 z"
           id="path12411"
           style="fill:#8f5946" />
        <path
           d="m -12119.594,22400.354 c -83.434,91.96 -197.248,164.099 -241.172,285.14 -15.146,41.674 -27.956,82.958 -35.399,127.575 -6.318,36.524 -4.674,71.923 -1.125,107.755 5.885,59.503 26.614,113.814 56.387,166.566 68.721,122.598 187.035,195.171 320.063,230.137 146.789,38.775 279.471,91.96 420.851,140.861 121.256,41.89 246.322,50.934 374.156,29.73 139.519,-23.196 272.936,-21.638 409.989,-21.422 66.038,0.217 130.344,-1.081 197.031,-16.92 81.574,-19.171 157.089,-35.832 236.672,-58.811 102.086,-29.297 196.08,-70.322 291.891,-111.044 2.683,-0.909 4.068,-3.851 3.159,-6.535 -0.909,-2.466 -3.592,-4.067 -6.318,-3.159 -185.954,73.222 -371.647,133.418 -574.304,166.393 -125.542,20.513 -246.149,3.808 -369.916,9.91 -91.7,4.717 -180.544,25.446 -272.287,30.206 -63.095,3.159 -123.681,0.217 -188.204,-12.636 -149.645,-30.206 -271.595,-98.711 -416.523,-136.836 -115.415,-30.422 -225.593,-60.628 -317.553,-139.735 -113.381,-97.586 -173.533,-242.298 -140.211,-391.727 9.261,-41.025 16.747,-80.016 33.365,-117.665 39.683,-88.584 118.098,-143.543 178.51,-220.66 14.627,-18.954 27.047,-37.865 44.184,-53.877 0.908,-0.909 0.908,-2.294 0,-3.159 -0.996,-0.996 -2.337,-0.996 -3.246,-0.09 l 0,0 z"
           id="path12413"
           style="fill:#8f5946" />
        <path
           d="m -12374.528,23018.799 c 23.672,48.901 43.059,101.653 84.733,138.827 115.631,103.47 267.31,121.949 408.647,161.589 176.216,80.665 357.453,174.399 556.648,165.873 109.097,-4.717 215.467,-22.979 325.299,-34.317 87.243,-8.958 171.975,7.27 258.526,2.077 101.177,-6.145 201.489,-15.146 298.252,-48.468 141.553,-48.684 277.48,-104.379 419.855,-146.529 1.818,-0.693 2.683,-2.683 2.294,-4.501 -0.736,-1.817 -2.683,-2.943 -4.501,-2.25 -111.347,27.263 -218.193,69.586 -328.631,99.619 -123.507,59.027 -260.56,71.447 -395.795,82.266 -66.21,5.41 -130.517,-10.386 -196.772,-5.929 -56.127,3.852 -110.697,9.261 -166.955,15.796 -71.231,7.962 -140.428,18.954 -211.485,22.546 -114.68,5.842 -225.853,-27.047 -332.224,-67.855 -81.617,-31.331 -156.872,-74.13 -238.229,-104.813 -133.634,-31.374 -268.652,-57.253 -382.466,-146.962 -43.751,-34.274 -72.139,-79.54 -93.301,-128.916 -0.476,-1.126 -1.817,-1.558 -2.899,-1.126 -1.212,0.866 -1.645,1.948 -0.996,3.073 l 0,0 z"
           id="path12415"
           style="fill:#8f5946" />
        <path
           d="m -12173.471,23234.742 c 89.882,43.708 178.509,83.651 281.071,105.288 52.969,11.035 94.47,41.674 145.794,55.436 30.856,8.308 59.763,15.319 91.96,21.854 9.521,2.033 16.488,7.659 25.013,11.035 1.342,0.692 2.899,0 3.592,-1.342 0.519,-1.298 0,-2.899 -1.298,-3.375 -84.517,-36.308 -168.817,-71.404 -256.319,-102.519 -22.546,-8.136 -47.083,-9.001 -69.413,-16.964 -73.481,-26.311 -148.996,-40.116 -219.059,-73.481 -1.082,-0.216 -2.25,0.26 -2.683,1.341 -0.389,1.126 0.216,2.51 1.342,2.727 l 0,0 z"
           id="path12417"
           style="fill:#8f5946" />
        <path
           d="m -12153.175,22877.938 c 73.913,28.129 156.872,41.025 232.603,10.819 56.777,-22.373 112.472,-45.093 159.599,-86.334 43.535,-38.298 73.914,-82.698 122.166,-116.972 38.991,-27.74 82.266,-38.559 125.757,-54.094 72.356,-25.922 117.449,-91.051 172.884,-140.644 90.142,-52.277 196.989,-73.914 301.109,-72.14 25.013,0.216 48.684,-12.853 73.481,-18.479 1.817,-0.432 3.116,-1.99 2.856,-3.808 -0.216,-2.034 -2.034,-3.159 -3.808,-2.899 -23.455,3.375 -46.434,13.502 -69.63,10.126 -60.585,-9.001 -116.497,-0.909 -175.134,13.675 -50.935,12.636 -99.403,25.446 -141.077,58.811 -57.253,46.218 -96.677,109.097 -165.441,135.451 -45.958,17.57 -93.777,28.172 -134.715,59.027 -61.321,46.391 -99.187,108.405 -165.441,148.088 -102.086,61.321 -220.703,98.061 -334.041,55.003 l 0,0 c -1.125,-0.217 -2.294,0.519 -2.683,1.601 -0.303,1.211 0.389,2.337 1.515,2.769 l 0,0 z"
           id="path12419"
           style="fill:#8f5946" />
        <path
           d="m -11820.52,23097.906 c 18.522,-18.219 30.639,-40.592 39.208,-64.696 24.104,-68.721 25.229,-139.043 37.433,-211.875 4.284,-25.922 12.376,-48.425 27.955,-69.803 38.083,-53.012 91.051,-85.252 147.179,-111.564 1.125,-0.216 1.818,-1.601 1.342,-2.683 -0.52,-1.081 -1.602,-1.601 -2.683,-1.298 -67.163,34.274 -136.144,71.404 -176.952,139.519 -15.753,26.398 -20.729,55.695 -22.979,85.209 -4.285,56.82 -10.819,110.005 -22.547,167.475 -5.193,25.229 -13.069,48.901 -31.547,67.163 -0.693,0.908 -0.433,2.293 0.519,2.942 0.822,0.52 2.164,0.52 3.072,-0.389 l 0,0 z"
           id="path12421"
           style="fill:#8f5946" />
        <path
           d="m -10337.438,19421.814 c 20.296,30.898 58.162,10.819 83.867,-1.558 53.878,-25.922 112.516,-16.921 170.851,-8.309 121.5162,18.262 202.6571,111.087 315.7783,146.27 52.7956,16.228 106.5866,8.525 162.498,18.955 71.88,13.328 133.2009,37.389 194.5217,78.241 117.7084,78.198 233.5126,131.643 347.1098,203.263 60.5852,60.239 110.8709,130.042 157.5647,201.489 0.7357,1.125 2.034,1.601 3.1591,0.909 1.1252,-0.736 1.6012,-2.077 0.9088,-3.376 -45.9582,-71.923 -83.3912,-151.03 -144.9284,-211.701 -112.9048,-74.131 -230.1371,-126.018 -348.2349,-205.081 -60.1957,-40.376 -119.9154,-64.913 -190.0211,-80.449 -60.4121,-13.502 -117.4487,-6.751 -176.952,-21.421 -71.88,-17.57 -122.5984,-69.197 -187.2514,-100.961 -96.2876,-47.083 -208.4996,-75.731 -310.8886,-35.832 -24.104,9.218 -49.766,28.173 -74.39,10.603 l 0,0 c -3.808,-1.601 -8.136,0.216 -9.477,4.024 -1.558,3.852 0.216,8.136 4.068,9.521 l 1.817,-4.587 z"
           id="path12447"
           style="fill:#8f5946" />
        <path
           d="m -8037.7543,20910.738 c 4.3275,34.274 17.5697,66.514 20.0364,101.177 2.5099,32.456 27.7826,55.003 52.4927,74.823 55.9115,44.833 112.6884,77.549 155.0548,137.312 39.9429,56.56 64.0039,117.189 69.2402,183.919 9.0012,115.112 -15.1463,228.709 -51.2378,337.416 -0.6924,1.818 0.2597,3.808 1.8176,4.284 1.8175,0.649 3.5918,-0.216 4.3275,-1.817 78.6309,-169.249 110.6978,-379.09 -12.8527,-542.064 -42.7991,-56.561 -96.893,-90.619 -153.0209,-133.677 -15.5357,-11.728 -29.9896,-24.105 -38.7745,-40.333 -20.9019,-38.298 -30.4224,-80.448 -43.0587,-121.689 l 0,0 c 0,-1.082 -1.0819,-2.034 -2.2503,-1.818 -1.3416,0.216 -1.9907,1.342 -1.7743,2.467 l 0,0 z"
           id="path12449"
           style="fill:#8f5946" />
        <path
           d="m -7727.8611,21418.788 c -6.1018,62.619 -16.0118,126.882 22.9791,184.828 70.1057,103.427 127.1423,204.172 135.9271,324.78 8.5685,118.097 -10.0831,234.637 -43.2751,350.009 -19.82,68.504 -47.5594,128.008 -89.6661,188.636 -55.4354,79.799 -112.2989,153.497 -202.6574,186.17 -71.4039,25.965 -146.7459,33.192 -222.0014,36.957 -21.6375,1.082 -43.0587,5.193 -64.4799,9.434 l 0,0 c -2.6831,0.216 -4.8901,2.51 -4.6737,5.193 0.2164,2.683 2.5099,4.673 5.193,4.673 129.3061,-7.01 271.3783,4.111 379.0901,-86.55 154.5787,-130.518 233.0365,-315.043 255.5396,-511.815 12.1603,-107.279 15.5358,-212.827 -21.1615,-316.038 -29.5569,-82.439 -83.1748,-148.304 -121.6897,-225.853 -23.4551,-47.083 -21.4212,-99.403 -24.4937,-150.554 l 0,0 c 0,-1.082 -1.1251,-2.034 -2.2936,-2.034 -1.1684,0.04 -2.3368,0.995 -2.3368,2.164 l 0,0 z"
           id="path12451"
           style="fill:#8f5946" />
        <path
           d="m -7762.5678,22825.662 c 116.7563,-110.222 128.7002,-280.596 138.3939,-432.535 0.9087,-14.886 1.8175,-30.422 6.7076,-44.876 1.3415,-3.808 -0.6924,-8.136 -4.6737,-9.477 -3.8082,-1.342 -8.1357,0.908 -9.4773,4.673 -7.2702,15.796 -12.4199,32.457 -13.3287,49.594 -4.2842,77.073 -11.9007,150.337 -26.3113,228.536 -12.4199,68.288 -43.5347,124.632 -77.3326,184.135 -3.8082,7.011 -9.91,11.901 -16.7042,16.228 -0.9088,0.909 -0.9088,2.251 -0.2164,3.116 0.7357,0.996 2.0339,1.298 2.9427,0.606 l 0,0 z"
           id="path12453"
           style="fill:#8f5946" />
        <path
           d="m -10713.845,20944.103 c -1.558,22.763 -12.852,41.674 -23.888,60.845 -31.114,55.002 -66.254,103.903 -88.584,162.281 -25.749,66.947 -28.648,136.793 -36.048,206.682 12.117,62.879 44.357,120.089 96.46,160.681 63.831,50.069 137.053,97.153 219.751,82.526 4.068,-0.909 6.751,-4.761 5.886,-8.785 -0.693,-4.111 -4.674,-6.535 -8.742,-5.929 -131.643,-4.501 -267.354,-98.451 -293.016,-232.604 7.227,-74.606 12.853,-148.78 43.275,-219.058 22.33,-51.411 54.311,-96.677 71.924,-149.862 6.318,-18.782 15.752,-36.265 17.569,-56.344 0,-1.126 -0.735,-2.294 -2.034,-2.51 -1.211,0.04 -2.336,0.735 -2.553,2.077 l 0,0 z"
           id="path12455"
           style="fill:#8f5946" />
        <path
           d="m -10958.609,21736.773 c 84.733,-10.126 169.033,-27.955 248.832,-59.936 23.455,-9.52 49.42,-27.782 53.878,-56.128 l 0.735,-10.818 c 0,-2.294 -0.735,-4.328 -2.034,-6.145 l -3.591,-4.501 c -10.603,-17.137 -27.783,-27.047 -43.752,-38.385 l 0,0 c -2.034,-1.818 -4.933,-1.818 -6.707,0.26 -1.818,2.034 -1.601,4.933 0.216,6.707 12.636,11.728 25.013,24.191 32.673,39.9 l 6.318,7.487 -2.034,-5.886 1.342,8.569 c -7.227,20.512 -25.489,34.923 -43.752,42.15 -78.63,31.763 -159.771,56.777 -242.73,72.615 -1.125,0 -2.034,1.082 -1.817,2.467 0.173,1.212 1.298,1.904 2.423,1.644 l 0,0 z"
           id="path12457"
           style="fill:#8f5946" />
      </g>
      <text
         x="9219.5039"
         y="9188.1133"
         id="text13067"
         xml:space="preserve"
         style="font-size:806.83972168px;font-style:normal;font-variant:normal;font-weight:normal;font-stretch:normal;fill:#000000;fill-opacity:1;stroke:none;font-family:Arab;-inkscape-font-specification:Arab"><tspan
           x="9219.5039"
           y="9188.1133"
           id="tspan13069">Movement = Mouse</tspan><tspan
           x="9219.5039"
           y="10196.663"
           id="tspan13071">Action = Keyboard</tspan></text>
    </g>
  </g>
</svg>
